<!DOCTYPE svg PUBLIC "-//W3C//DTD SVG 1.1//EN" "http://www.w3.org/Graphics/SVG/1.1/DTD/svg11.dtd">
<svg fill="#ffffff" version="1.1" id="SVGRepoEditor" xmlns="http://www.w3.org/2000/svg" xmlns:xlink="http://www.w3.org/1999/xlink" width="64px" height="64px" viewBox="-4.33 -4.33 51.99 51.99" xml:space="preserve" stroke="#ffffff" stroke-width="0" transform="rotate(0)">
<g id="SVGRepo_bgCarrier" stroke-width="0"/> <path d="M18.689,30.359c1.645,1.639,4.305,1.639,5.951,0l14.082-14.014c0.91-0.906,1.186-2.287,0.695-3.474 s-1.646-1.976-2.932-1.976h-5.879V3.196C30.606,1.445,29.17,0,27.419,0H15.908C14.156,0,12.7,1.444,12.7,3.196v7.698H6.842 c-1.284,0-2.441,0.79-2.931,1.976c-0.49,1.187-0.216,2.561,0.694,3.466L18.689,30.359z"/> <path d="M42.657,37.547c0-1.75-1.419-3.171-3.172-3.171H3.842c-1.751,0-3.171,1.419-3.171,3.171v2.611 c0,1.751,1.42,3.171,3.171,3.171h35.645c1.751,0,3.171-1.42,3.171-3.171L42.657,37.547L42.657,37.547z"/> </svg>