<svg xmlns="http://www.w3.org/2000/svg" version="1.1" xmlns:xlink="http://www.w3.org/1999/xlink" xmlns:svgjs="http://svgjs.dev/svgjs" viewBox="0 0 800 800"><defs><linearGradient x1="50%" y1="0%" x2="50%" y2="100%" id="ffflurry-grad" gradientTransform="rotate(270)"><stop stop-color="hsl(238, 82%, 13%)" stop-opacity="1" offset="0%"></stop><stop stop-color="hsl(1.4, 100%, 67%)" stop-opacity="1" offset="45%"></stop><stop stop-color="hsl(167, 52%, 78%)" stop-opacity="1" offset="100%"></stop></linearGradient></defs><rect width="100%" height="100%" fill="hsl(238, 82%, 13%)"></rect><g fill="url(#ffflurry-grad)"><rect width="532" height="1" x="60" y="23.5" rx="0.5" transform="rotate(23, 326, 24)" opacity="0.60"></rect><rect width="213" height="1" x="450.5" y="259.5" rx="0.5" transform="rotate(23, 557, 260)" opacity="0.22"></rect><rect width="203" height="1" x="78.5" y="31.5" rx="0.5" transform="rotate(23, 180, 32)" opacity="0.97"></rect><rect width="314" height="1" x="567" y="622.5" rx="0.5" transform="rotate(23, 724, 623)" opacity="0.66"></rect><rect width="682" height="1" x="-164" y="347.5" rx="0.5" transform="rotate(23, 177, 348)" opacity="0.78"></rect><rect width="33" height="1" x="509.5" y="474.5" rx="0.5" transform="rotate(23, 526, 475)" opacity="0.48"></rect><rect width="547" height="1" x="186.5" y="445.5" rx="0.5" transform="rotate(23, 460, 446)" opacity="0.62"></rect><rect width="561" height="1" x="-164.5" y="754.5" rx="0.5" transform="rotate(23, 116, 755)" opacity="0.44"></rect><rect width="354" height="1" x="199" y="66.5" rx="0.5" transform="rotate(23, 376, 67)" opacity="0.55"></rect><rect width="637" height="1" x="-284.5" y="208.5" rx="0.5" transform="rotate(23, 34, 209)" opacity="0.67"></rect><rect width="915" height="1" x="-326.5" y="555.5" rx="0.5" transform="rotate(23, 131, 556)" opacity="0.49"></rect><rect width="937" height="1" x="221.5" y="199.5" rx="0.5" transform="rotate(23, 690, 200)" opacity="0.42"></rect><rect width="582" height="1" x="469" y="700.5" rx="0.5" transform="rotate(23, 760, 701)" opacity="0.27"></rect><rect width="485" height="1" x="530.5" y="22.5" rx="0.5" transform="rotate(23, 773, 23)" opacity="0.58"></rect><rect width="146" height="1" x="538" y="706.5" rx="0.5" transform="rotate(23, 611, 707)" opacity="0.99"></rect><rect width="173" height="1" x="686.5" y="463.5" rx="0.5" transform="rotate(23, 773, 464)" opacity="0.36"></rect><rect width="122" height="1" x="599" y="12.5" rx="0.5" transform="rotate(23, 660, 13)" opacity="0.37"></rect><rect width="54" height="1" x="82" y="209.5" rx="0.5" transform="rotate(23, 109, 210)" opacity="0.54"></rect><rect width="496" height="1" x="286" y="720.5" rx="0.5" transform="rotate(23, 534, 721)" opacity="0.61"></rect><rect width="346" height="1" x="-18" y="117.5" rx="0.5" transform="rotate(23, 155, 118)" opacity="0.96"></rect><rect width="475" height="1" x="261.5" y="568.5" rx="0.5" transform="rotate(23, 499, 569)" opacity="0.57"></rect><rect width="199" height="1" x="655.5" y="251.5" rx="0.5" transform="rotate(23, 755, 252)" opacity="0.68"></rect><rect width="427" height="1" x="36.5" y="29.5" rx="0.5" transform="rotate(23, 250, 30)" opacity="0.48"></rect><rect width="73" height="1" x="575.5" y="595.5" rx="0.5" transform="rotate(23, 612, 596)" opacity="0.09"></rect><rect width="375" height="1" x="35.5" y="88.5" rx="0.5" transform="rotate(23, 223, 89)" opacity="0.61"></rect><rect width="289" height="1" x="448.5" y="531.5" rx="0.5" transform="rotate(23, 593, 532)" opacity="0.94"></rect><rect width="515" height="1" x="511.5" y="369.5" rx="0.5" transform="rotate(23, 769, 370)" opacity="0.92"></rect><rect width="379" height="1" x="155.5" y="153.5" rx="0.5" transform="rotate(23, 345, 154)" opacity="0.69"></rect><rect width="742" height="1" x="-334" y="581.5" rx="0.5" transform="rotate(23, 37, 582)" opacity="0.09"></rect><rect width="400" height="1" x="-119" y="481.5" rx="0.5" transform="rotate(23, 81, 482)" opacity="0.08"></rect><rect width="437" height="1" x="-140.5" y="139.5" rx="0.5" transform="rotate(23, 78, 140)" opacity="0.31"></rect><rect width="556" height="1" x="277" y="570.5" rx="0.5" transform="rotate(23, 555, 571)" opacity="0.86"></rect><rect width="606" height="1" x="306" y="767.5" rx="0.5" transform="rotate(23, 609, 768)" opacity="0.37"></rect><rect width="176" height="1" x="496" y="85.5" rx="0.5" transform="rotate(23, 584, 86)" opacity="0.54"></rect><rect width="122" height="1" x="526" y="636.5" rx="0.5" transform="rotate(23, 587, 637)" opacity="0.10"></rect><rect width="151" height="1" x="143.5" y="531.5" rx="0.5" transform="rotate(23, 219, 532)" opacity="0.56"></rect><rect width="415" height="1" x="255.5" y="688.5" rx="0.5" transform="rotate(23, 463, 689)" opacity="0.46"></rect><rect width="486" height="1" x="55" y="524.5" rx="0.5" transform="rotate(23, 298, 525)" opacity="0.62"></rect><rect width="387" height="1" x="287.5" y="763.5" rx="0.5" transform="rotate(23, 481, 764)" opacity="0.72"></rect><rect width="635" height="1" x="100.5" y="547.5" rx="0.5" transform="rotate(23, 418, 548)" opacity="0.85"></rect><rect width="342" height="1" x="562" y="327.5" rx="0.5" transform="rotate(23, 733, 328)" opacity="0.55"></rect><rect width="713" height="1" x="-146.5" y="442.5" rx="0.5" transform="rotate(23, 210, 443)" opacity="0.27"></rect><rect width="58" height="1" x="319" y="708.5" rx="0.5" transform="rotate(23, 348, 709)" opacity="0.29"></rect><rect width="43" height="1" x="79.5" y="19.5" rx="0.5" transform="rotate(23, 101, 20)" opacity="0.86"></rect><rect width="638" height="1" x="90" y="470.5" rx="0.5" transform="rotate(23, 409, 471)" opacity="0.51"></rect><rect width="216" height="1" x="598" y="60.5" rx="0.5" transform="rotate(23, 706, 61)" opacity="0.18"></rect><rect width="77" height="1" x="-15.5" y="493.5" rx="0.5" transform="rotate(23, 23, 494)" opacity="0.19"></rect><rect width="537" height="1" x="-228.5" y="392.5" rx="0.5" transform="rotate(23, 40, 393)" opacity="0.43"></rect><rect width="425" height="1" x="99.5" y="86.5" rx="0.5" transform="rotate(23, 312, 87)" opacity="0.76"></rect><rect width="134" height="1" x="348" y="395.5" rx="0.5" transform="rotate(23, 415, 396)" opacity="0.94"></rect><rect width="464" height="1" x="188" y="107.5" rx="0.5" transform="rotate(23, 420, 108)" opacity="0.73"></rect><rect width="380" height="1" x="372" y="23.5" rx="0.5" transform="rotate(23, 562, 24)" opacity="0.21"></rect><rect width="59" height="1" x="514.5" y="773.5" rx="0.5" transform="rotate(23, 544, 774)" opacity="0.19"></rect><rect width="336" height="1" x="553" y="18.5" rx="0.5" transform="rotate(23, 721, 19)" opacity="0.84"></rect><rect width="162" height="1" x="133" y="272.5" rx="0.5" transform="rotate(23, 214, 273)" opacity="0.18"></rect><rect width="264" height="1" x="516" y="488.5" rx="0.5" transform="rotate(23, 648, 489)" opacity="0.89"></rect><rect width="442" height="1" x="456" y="604.5" rx="0.5" transform="rotate(23, 677, 605)" opacity="0.84"></rect><rect width="489" height="1" x="518.5" y="181.5" rx="0.5" transform="rotate(23, 763, 182)" opacity="0.68"></rect><rect width="32" height="1" x="692" y="535.5" rx="0.5" transform="rotate(23, 708, 536)" opacity="0.78"></rect><rect width="197" height="1" x="669.5" y="550.5" rx="0.5" transform="rotate(23, 768, 551)" opacity="0.89"></rect><rect width="480" height="1" x="-21" y="616.5" rx="0.5" transform="rotate(23, 219, 617)" opacity="0.67"></rect><rect width="341" height="1" x="-39.5" y="54.5" rx="0.5" transform="rotate(23, 131, 55)" opacity="0.34"></rect><rect width="211" height="1" x="504.5" y="504.5" rx="0.5" transform="rotate(23, 610, 505)" opacity="0.67"></rect><rect width="366" height="1" x="594" y="315.5" rx="0.5" transform="rotate(23, 777, 316)" opacity="0.38"></rect><rect width="119" height="1" x="204.5" y="143.5" rx="0.5" transform="rotate(23, 264, 144)" opacity="0.19"></rect><rect width="586" height="1" x="129" y="30.5" rx="0.5" transform="rotate(23, 422, 31)" opacity="0.38"></rect><rect width="408" height="1" x="256" y="520.5" rx="0.5" transform="rotate(23, 460, 521)" opacity="0.45"></rect><rect width="442" height="1" x="335" y="125.5" rx="0.5" transform="rotate(23, 556, 126)" opacity="0.78"></rect><rect width="52" height="1" x="473" y="14.5" rx="0.5" transform="rotate(23, 499, 15)" opacity="0.76"></rect><rect width="402" height="1" x="164" y="524.5" rx="0.5" transform="rotate(23, 365, 525)" opacity="0.35"></rect><rect width="115" height="1" x="590.5" y="404.5" rx="0.5" transform="rotate(23, 648, 405)" opacity="0.66"></rect><rect width="98" height="1" x="247" y="216.5" rx="0.5" transform="rotate(23, 296, 217)" opacity="0.84"></rect><rect width="371" height="1" x="481.5" y="42.5" rx="0.5" transform="rotate(23, 667, 43)" opacity="0.67"></rect><rect width="228" height="1" x="614" y="769.5" rx="0.5" transform="rotate(23, 728, 770)" opacity="1.00"></rect><rect width="149" height="1" x="390.5" y="617.5" rx="0.5" transform="rotate(23, 465, 618)" opacity="0.47"></rect><rect width="492" height="1" x="484" y="409.5" rx="0.5" transform="rotate(23, 730, 410)" opacity="0.18"></rect><rect width="469" height="1" x="45.5" y="422.5" rx="0.5" transform="rotate(23, 280, 423)" opacity="0.34"></rect><rect width="59" height="1" x="490.5" y="201.5" rx="0.5" transform="rotate(23, 520, 202)" opacity="0.15"></rect><rect width="416" height="1" x="-183" y="114.5" rx="0.5" transform="rotate(23, 25, 115)" opacity="0.34"></rect><rect width="392" height="1" x="413" y="42.5" rx="0.5" transform="rotate(23, 609, 43)" opacity="0.85"></rect><rect width="369" height="1" x="243.5" y="314.5" rx="0.5" transform="rotate(23, 428, 315)" opacity="0.13"></rect><rect width="395" height="1" x="-37.5" y="249.5" rx="0.5" transform="rotate(23, 160, 250)" opacity="0.77"></rect><rect width="465" height="1" x="463.5" y="390.5" rx="0.5" transform="rotate(23, 696, 391)" opacity="0.41"></rect><rect width="506" height="1" x="402" y="551.5" rx="0.5" transform="rotate(23, 655, 552)" opacity="0.13"></rect><rect width="191" height="1" x="464.5" y="500.5" rx="0.5" transform="rotate(23, 560, 501)" opacity="0.71"></rect><rect width="828" height="1" x="-91" y="609.5" rx="0.5" transform="rotate(23, 323, 610)" opacity="0.86"></rect><rect width="73" height="1" x="492.5" y="78.5" rx="0.5" transform="rotate(23, 529, 79)" opacity="0.26"></rect><rect width="609" height="1" x="176.5" y="247.5" rx="0.5" transform="rotate(23, 481, 248)" opacity="0.36"></rect><rect width="464" height="1" x="108" y="419.5" rx="0.5" transform="rotate(23, 340, 420)" opacity="0.17"></rect><rect width="809" height="1" x="173.5" y="324.5" rx="0.5" transform="rotate(23, 578, 325)" opacity="0.17"></rect><rect width="285" height="1" x="558.5" y="317.5" rx="0.5" transform="rotate(23, 701, 318)" opacity="0.94"></rect><rect width="58" height="1" x="617" y="651.5" rx="0.5" transform="rotate(23, 646, 652)" opacity="0.72"></rect><rect width="190" height="1" x="507" y="558.5" rx="0.5" transform="rotate(23, 602, 559)" opacity="0.83"></rect><rect width="58" height="1" x="503" y="438.5" rx="0.5" transform="rotate(23, 532, 439)" opacity="0.81"></rect><rect width="39" height="1" x="755.5" y="621.5" rx="0.5" transform="rotate(23, 775, 622)" opacity="0.90"></rect><rect width="359" height="1" x="403.5" y="195.5" rx="0.5" transform="rotate(23, 583, 196)" opacity="0.73"></rect><rect width="853" height="1" x="77.5" y="314.5" rx="0.5" transform="rotate(23, 504, 315)" opacity="0.53"></rect><rect width="40" height="1" x="25" y="770.5" rx="0.5" transform="rotate(23, 45, 771)" opacity="0.62"></rect><rect width="167" height="1" x="380.5" y="379.5" rx="0.5" transform="rotate(23, 464, 380)" opacity="0.12"></rect><rect width="494" height="1" x="428" y="763.5" rx="0.5" transform="rotate(23, 675, 764)" opacity="0.20"></rect><rect width="864" height="1" x="-371" y="303.5" rx="0.5" transform="rotate(23, 61, 304)" opacity="0.25"></rect><rect width="131" height="1" x="708.5" y="500.5" rx="0.5" transform="rotate(23, 774, 501)" opacity="0.81"></rect><rect width="530" height="1" x="212" y="111.5" rx="0.5" transform="rotate(23, 477, 112)" opacity="0.89"></rect><rect width="650" height="1" x="391" y="474.5" rx="0.5" transform="rotate(23, 716, 475)" opacity="0.45"></rect><rect width="555" height="1" x="384.5" y="274.5" rx="0.5" transform="rotate(23, 662, 275)" opacity="0.35"></rect><rect width="235" height="1" x="474.5" y="446.5" rx="0.5" transform="rotate(23, 592, 447)" opacity="0.29"></rect><rect width="425" height="1" x="163.5" y="395.5" rx="0.5" transform="rotate(23, 376, 396)" opacity="0.24"></rect><rect width="234" height="1" x="606" y="122.5" rx="0.5" transform="rotate(23, 723, 123)" opacity="0.37"></rect><rect width="107" height="1" x="623.5" y="106.5" rx="0.5" transform="rotate(23, 677, 107)" opacity="0.75"></rect><rect width="238" height="1" x="405" y="156.5" rx="0.5" transform="rotate(23, 524, 157)" opacity="0.17"></rect><rect width="724" height="1" x="-93" y="761.5" rx="0.5" transform="rotate(23, 269, 762)" opacity="0.77"></rect><rect width="228" height="1" x="531" y="132.5" rx="0.5" transform="rotate(23, 645, 133)" opacity="0.09"></rect><rect width="172" height="1" x="262" y="468.5" rx="0.5" transform="rotate(23, 348, 469)" opacity="0.66"></rect><rect width="264" height="1" x="531" y="446.5" rx="0.5" transform="rotate(23, 663, 447)" opacity="0.95"></rect><rect width="54" height="1" x="609" y="351.5" rx="0.5" transform="rotate(23, 636, 352)" opacity="0.92"></rect><rect width="99" height="1" x="402.5" y="185.5" rx="0.5" transform="rotate(23, 452, 186)" opacity="0.20"></rect><rect width="280" height="1" x="244" y="250.5" rx="0.5" transform="rotate(23, 384, 251)" opacity="0.94"></rect><rect width="818" height="1" x="-314" y="649.5" rx="0.5" transform="rotate(23, 95, 650)" opacity="0.89"></rect><rect width="140" height="1" x="618" y="697.5" rx="0.5" transform="rotate(23, 688, 698)" opacity="0.91"></rect><rect width="538" height="1" x="-97" y="731.5" rx="0.5" transform="rotate(23, 172, 732)" opacity="0.31"></rect><rect width="37" height="1" x="759.5" y="122.5" rx="0.5" transform="rotate(23, 778, 123)" opacity="0.29"></rect><rect width="438" height="1" x="263" y="50.5" rx="0.5" transform="rotate(23, 482, 51)" opacity="0.10"></rect><rect width="212" height="1" x="-74" y="700.5" rx="0.5" transform="rotate(23, 32, 701)" opacity="0.45"></rect><rect width="694" height="1" x="-114" y="683.5" rx="0.5" transform="rotate(23, 233, 684)" opacity="0.21"></rect><rect width="363" height="1" x="437.5" y="241.5" rx="0.5" transform="rotate(23, 619, 242)" opacity="0.52"></rect><rect width="696" height="1" x="-70" y="304.5" rx="0.5" transform="rotate(23, 278, 305)" opacity="0.34"></rect><rect width="226" height="1" x="649" y="434.5" rx="0.5" transform="rotate(23, 762, 435)" opacity="0.26"></rect><rect width="465" height="1" x="168.5" y="625.5" rx="0.5" transform="rotate(23, 401, 626)" opacity="0.75"></rect><rect width="443" height="1" x="265.5" y="480.5" rx="0.5" transform="rotate(23, 487, 481)" opacity="0.29"></rect><rect width="195" height="1" x="679.5" y="766.5" rx="0.5" transform="rotate(23, 777, 767)" opacity="0.18"></rect><rect width="416" height="1" x="-173" y="38.5" rx="0.5" transform="rotate(23, 35, 39)" opacity="0.57"></rect><rect width="702" height="1" x="-223" y="420.5" rx="0.5" transform="rotate(23, 128, 421)" opacity="0.27"></rect><rect width="292" height="1" x="521" y="331.5" rx="0.5" transform="rotate(23, 667, 332)" opacity="0.15"></rect><rect width="265" height="1" x="459.5" y="388.5" rx="0.5" transform="rotate(23, 592, 389)" opacity="0.16"></rect><rect width="475" height="1" x="287.5" y="626.5" rx="0.5" transform="rotate(23, 525, 627)" opacity="0.52"></rect><rect width="168" height="1" x="530" y="158.5" rx="0.5" transform="rotate(23, 614, 159)" opacity="0.88"></rect><rect width="388" height="1" x="-98" y="89.5" rx="0.5" transform="rotate(23, 96, 90)" opacity="0.71"></rect><rect width="202" height="1" x="683" y="407.5" rx="0.5" transform="rotate(23, 784, 408)" opacity="0.65"></rect><rect width="433" height="1" x="123.5" y="340.5" rx="0.5" transform="rotate(23, 340, 341)" opacity="0.80"></rect><rect width="145" height="1" x="440.5" y="522.5" rx="0.5" transform="rotate(23, 513, 523)" opacity="0.23"></rect><rect width="175" height="1" x="676.5" y="69.5" rx="0.5" transform="rotate(23, 764, 70)" opacity="0.18"></rect><rect width="212" height="1" x="536" y="63.5" rx="0.5" transform="rotate(23, 642, 64)" opacity="0.88"></rect><rect width="664" height="1" x="75" y="761.5" rx="0.5" transform="rotate(23, 407, 762)" opacity="0.15"></rect><rect width="331" height="1" x="386.5" y="675.5" rx="0.5" transform="rotate(23, 552, 676)" opacity="0.15"></rect><rect width="471" height="1" x="163.5" y="165.5" rx="0.5" transform="rotate(23, 399, 166)" opacity="0.73"></rect><rect width="364" height="1" x="343" y="388.5" rx="0.5" transform="rotate(23, 525, 389)" opacity="0.20"></rect><rect width="595" height="1" x="-102.5" y="176.5" rx="0.5" transform="rotate(23, 195, 177)" opacity="0.96"></rect></g></svg>