<svg xmlns="http://www.w3.org/2000/svg" viewBox="0 0 100 100" xmlns:v="https://vecta.io/nano"><path d="M49 68.2c8 0 15.1 5.7 18.9 14.2.8-2.2 1.3-4.5 1.3-6.9 0-11.1-9-20-20.2-20s-20.2 9-20.2 20c0 2.4.5 4.8 1.3 6.9C33.9 73.9 41 68.2 49 68.2z" fill="red"/><path d="M42.9 69.5h12.2v4.2H42.9z" fill="#2683ea"/><path d="M53.1 77.1c-.6 2.6-4.1 8.3-4.1 8.3s-3.5-5.6-4.1-8.3c-.6-2.8-.1-5.4 1.3-6.7 1.3-1.4 2.8-3.2 2.8-2.7 0-.5 1.5 1.3 2.8 2.7 1.3 1.3 1.9 3.9 1.3 6.7z" fill="#e8ab2e"/><path d="M50.5 76.9c-.2 1.7-1.5 5.4-1.5 5.4s-1.3-3.7-1.5-5.4c-.2-1.8 0-3.5.5-4.4s1-2.1 1-1.8c0-.3.6.9 1 1.8.5.9.7 2.5.5 4.4z" fill="red"/><path d="M58.5 28.5C56.1 22.6 49 14.6 49 14.6h0s-7.1 8-9.5 13.9C37 34.4 33.7 51 42.3 72.2H49h0 6.7C64.3 51 61 34.4 58.5 28.5z" fill="#c1c1c1"/><path d="M59.4 31c-2.2-.5-6-.9-10.4-.9s-8.2.4-10.4.9a23.03 23.03 0 0 1 .9-2.5c2.4-5.8 9.5-13.9 9.5-13.9h0s7 8 9.5 13.9a23.03 23.03 0 0 1 .9 2.5z" fill="#294862"/><path d="M59.4 31c-2.2-.5-6-.9-10.4-.9s-8.2.4-10.4.9c.3-.9.5-1.6.8-2.3 2.2-.9 5.7-1.4 9.6-1.4s7.3.5 9.6 1.4c.3.7.5 1.4.8 2.3z" fill="red"/><ellipse cx="49" cy="66.7" rx="1.6" ry="9.4" fill="#294862"/><circle cx="49" cy="41.3" r="5.5" fill="#e5ac2e"/><circle cx="49" cy="41.3" r="4.2" fill="#294862"/></svg>