<?xml version="1.0" encoding="UTF-8"?>
<!DOCTYPE svg PUBLIC "-//W3C//DTD SVG 1.1//EN" "http://www.w3.org/Graphics/SVG/1.1/DTD/svg11.dtd">
<!-- Creator: CorelDRAW 2018 (64-Bit Evaluation Version) -->
<svg xmlns="http://www.w3.org/2000/svg" xml:space="preserve" width="297mm" height="210mm" version="1.1" style="shape-rendering:geometricPrecision; text-rendering:geometricPrecision; image-rendering:optimizeQuality; fill-rule:evenodd; clip-rule:evenodd"
viewBox="0 0 29700 21000"
 xmlns:xlink="http://www.w3.org/1999/xlink">
 <defs>
  <style type="text/css">
   <![CDATA[
    .str0 {stroke:#2B2A29;stroke-width:20;stroke-miterlimit:22.9256}
    .fil1 {fill:#FEFEFE}
    .fil0 {fill:#1F1B20}
   ]]>
  </style>
 </defs>
 <g id="Layer_x0020_1">
  <metadata id="CorelCorpID_0Corel-Layer"/>
  <rect class="fil0 str0" width="30000" height="21000"/>
  <g id="_3070780541696">
   <path class="fil1" d="M6968.42 15903.58l-90.23 -90.4 90.23 90.4zm20031.58 -5885.07l0 203.17c-300.71,161.95 -493.32,20.34 -940.52,311.31 -254.92,165.91 -445.8,302.78 -714.36,459.41 -410.17,239.2 -1026.51,722.89 -1397.56,993.93 1065.09,785.27 2287.06,-778.85 3029.24,-1316.91 53.66,586.08 -708.15,959.63 -1124.33,1283.11 -631.61,490.97 -1089.65,444.21 -1822.4,359.17 893.38,1247.23 2777.82,204.45 2968.78,173.12l-22.05 503.41c-917.73,726.7 -1904.79,378.21 -2137.34,387.44 -611.61,24.25 -1331.89,641.81 -1433.29,1247.08 645.03,-108.4 727.31,-383.55 1082.83,-822.19l444.49 692.66 501.63 -291.35c391.03,386.61 178.28,306.5 755.32,391.95l-379.52 151.43 -435.11 -393.59c-261.1,201.94 -143.04,199.39 -458.88,294.34 -236.08,-179.43 -311.59,-352.07 -443.44,-565.46 -398.93,504.24 -540.88,532.09 -1157.54,753.99 -41.27,532.06 35.51,627.76 74.76,1069.05 -293.5,-327 -159.27,-595.84 -201.23,-1052.95l-606.21 -220.55 -365.59 188.94 247.51 -294.37c33.65,-88.62 -224.81,-854.95 360.93,-947.7 182.96,252.3 167.94,291.55 23.21,519.05 -33.12,367.71 32.19,143.86 -177.03,447.12l545.68 102.88c275.35,-457.11 57.08,-417.51 554.21,-890.9 325.03,-309.52 470.28,-339.26 874.04,-495.75 -584.47,-319.79 -781.61,-456.32 -1286.49,-955.4 -1324.02,594.59 -1978.91,-491.3 -2841.06,90.31 -540.78,364.84 -1455.83,1396.44 -1910.28,1520.98 138.09,-210.68 1460.62,-1443.89 1988.09,-1717.69l244.51 -157.02c-234.88,-186 -1085.25,-516.96 -1349.93,-554.7 -540.03,-76.94 -797.66,386.15 -1153.38,621.85l0 -180.68c-317.98,210.68 -735.46,704.01 -782.53,1100.18l421.6 -196.48 197.78 649.45 -342.39 335.66 -35.85 -171.71c-138.83,-220.27 -77.98,-116.62 -113.43,-444.11 -164.76,298.41 -149.1,348.64 15.46,692.07 -342.79,-50.92 -138.39,-13.92 -384.13,-322.83 -163.21,350.4 -204.73,1466.14 -52.46,1875.6 424.53,1141.63 1276.98,566.02 1346.66,549.11 -554.91,779.82 -1946.39,-77.56 -1556.32,-2010.73 264.93,-1313.01 634.93,-1742.96 1638.8,-2484.86 -915.86,-82.48 -1722.67,883.8 -1881.27,1699.72 -230.16,1183.89 -821.22,1596.24 -1983.21,1145.82 401.1,-221.52 795.25,-145.88 1232.31,-90.33 723.58,-418.76 420.98,-815.78 760.5,-1422.86 -243.82,-114.09 -624.38,49.88 -631.61,-526.75 349.82,70.25 274.28,319.36 710.83,83.82 266.69,-143.86 238.51,-325.39 467.61,-530.27 317.5,-283.85 903.5,-552.94 1330.16,-565.64 770.57,-22.92 999.65,-283.92 1631.62,-353.99 795.82,-88.28 1081.09,119.64 1709.44,175.71 -204.4,-309.37 -1507.57,-1304.48 -1890.73,-1323.28 -48.02,-2.35 -1262.88,173.96 -1396.83,199.49 -1305.59,248.81 -1901.36,1088.96 -2651.15,2044.2 -974.51,1241.53 -1205.53,393.64 -1994.04,277.71 248.98,519.44 79.03,751.89 262.99,1151.71 -351.94,551.92 139.31,269.89 -631.64,738.46 -407.55,-245.85 -487.37,-296.26 -427.96,-805.61 484.96,-381.2 332.26,-479.98 683.15,-986.44 -182.14,-308.12 -228.29,-549.54 -525.9,-663.63 -189.94,-289.82 -222.16,-216.51 -531.81,-369.52l-821.67 731.01c96.3,-356.38 314.81,-396.93 533.67,-699.76 -511.24,-55.71 -1124.05,213.72 -1312.7,734.59 -262.33,724.27 61.2,856.66 649.86,1117.81l580.33 -700.73 90.22 0c-93.47,393.41 -712.61,1312.49 -992.54,1626.82 36,-415.13 195.12,-439.26 255.24,-797.94 -718.85,-258.65 -1038.85,-595.05 -648.22,-1403.29 352.27,-728.89 1003.1,-620.01 1468.03,-848.33 -549.43,-227.52 -416.84,-78.09 -903.65,-25.96 -515.4,55.17 -421.34,-197.27 -963.95,-7.61l168.65 379.53c-262.81,346.86 -372.15,506.74 -804.38,550 -187.15,514.64 -514.17,877.39 -902.3,1190.43 93.22,209.33 129.3,654.69 241.63,976.73 163.23,467.7 385.06,457.94 449.3,784.32 -549.34,-108.52 -766.03,-1206.93 -819.84,-1693.89 -858.4,457.95 -1222.47,196.57 -1946.44,459.64 -32.47,575.5 232.64,446.36 -97.94,1136.13 398.42,53.48 828.17,324.98 1059.57,624.87 -489,390.24 -654.99,535.56 -1247.79,392.54 227.49,494.32 52.43,953.2 -149.51,1340.15 -342.46,-338.58 -590.25,-496.27 -776.02,-970.91 -359.22,259.36 -679.83,200.49 -1142.08,149.77 354.24,-666.12 99.3,-666.37 729.61,-1061.32 -383.7,-302.31 -535.82,-767.42 -541.39,-1249.73 488.95,81.46 815.62,36.54 1134.37,428.65 636.44,-1626.42 2048.42,-751.03 2820.37,-1438.35l197.78 -90.35c57.26,-155.54 -111.62,-96.85 163.15,-137.38 114.94,59.88 90.23,83.64 90.23,-43.41l90.22 -90.35 90.28 -90.36 0 -90.4c274.29,-263.4 559.69,-614.24 518.16,-1076.78 -278.88,200.39 -605.22,729.74 -709.78,1076.78l-169.34 221.92c0,-434.17 178.03,-752.61 473.93,-1102.91 114.27,-135.2 246.56,-237.64 373.61,-348.77 509.14,-445.39 -110.54,-269.46 768.91,-464.19 -1450.33,-161.65 -1957.88,2117.36 -3619,898 -443.18,-325.31 -1204.43,-886.91 -1766.92,-818.15 -626.15,76.5 -1344.24,560.5 -1390.36,1268.67l404.37 463.33 -207.33 62.86c351.84,488.82 865.27,170.33 1263.25,-90.36 119.54,-496.85 119.54,-316.55 0,-813.42l163.77 113.07 72.37 563.41 215.03 46.54 -142.9 -381.79 323.37 201.02 90.23 90.36 286.14 180.81c-257.44,337.48 -267.66,635.68 -640.35,707.81l-6.72 -255.96 -541.39 -196.22c-551.79,425.28 -1059.37,179.18 -1443.71,-255.63l-23.2 -263.35c-155.16,71.7 -123.27,64.19 -232.05,23.18 296.06,-321.38 173.61,-353.65 343.64,-665.4 115.16,-211.19 300.52,-309.67 453,-540.49 -687.17,163.87 -1614.15,606.7 -2282.97,-63.19 -887.32,-888.73 85.37,-1991.77 478.32,-1473.22 -1338.55,116.41 -589.5,1765.36 539.02,1723.61 230.13,-8.51 748.46,-202.63 984.21,-288.29 793.34,-288.44 321,-202.68 732.58,-547.06 104.54,212.5 220.09,15.46 -82.51,263.45 340.93,9.05 612.22,-128.71 1060.01,-52.28 616.49,105.28 1480.91,1026.43 2263.11,955.98 -296.98,-162.46 -250.03,-74.38 -475.97,-432.68l272.31 -522.71c216.28,308.75 -126.36,88.05 146.22,592.11l237.92 394.25c996.64,-271.83 1196.54,-949.1 2436.26,-1115.48 -158.99,-407.41 615.77,-448.04 910.06,-519.05 -266.28,-530.92 -543.89,-583.91 -1088.42,-726.78l-308.86 149.92 -46.45 215.36c-242.75,94.57 -104.62,-102.62 -180.43,180.79 0.28,337.14 -87.49,342.43 149.51,526.79 191.24,-258.36 113.94,-59.94 121.17,-436.44 144.76,227.5 159.78,266.77 -23.25,534.59l-224.26 -15.59c-265.51,-368.85 -119.81,-659.51 -23.17,-1061.26 440.71,-223.63 685.17,-277.17 1134.44,-51.77 497.29,249.55 434.48,430.01 760.43,699.97 333.11,-275.89 58.59,-224.5 541.39,-467.43 -475.49,-719.88 -797.07,-1460.94 -1691.22,-821.15 -7.36,-256.16 37.92,-445.74 278.73,-600.74 219.27,-141.23 277.2,-31.61 600.39,-24.18 -6.44,-305.43 -111.94,-976.62 -171.2,-1274.6 -300.2,-1510.32 -1626.21,-516.42 -2355.31,-1165.59 871.33,-18.45 1036.04,-511.13 1829.15,156.21 747.19,628.75 584.62,560.78 750.21,1508.07 191.08,1093.51 994.64,2994.82 1857.51,2312.33 -516.66,-670.07 -811.66,-961.73 -1088.3,-1817.52 -211.73,-655 -426.6,-1809.3 -123.37,-2422.46 67.97,621.95 -20.59,1092.48 105.51,1717.3 339.09,1679.95 928.67,2291.66 2173.47,2990.09 414.19,-251.74 951.29,-407.8 1436,-353.78 -339.29,166.66 -850.07,108.81 -1247.82,405.45 726.92,79.7 749.89,-62.66 1359.51,-241.32 367.45,-107.71 171.53,21.13 536.76,-80.67 198.57,-55.43 384.11,-134.72 584.85,-206.98 214.55,-295.95 -223.33,-302.65 -418.65,-393.79 -1401.45,-988.49 -2279.11,-3395.26 -4533.38,-3187.62 1229.65,700.61 4314.44,4290.83 5711.57,3320.18 367.45,-7.81 547.44,-91.93 991.75,-91.27 2108.27,3.09 2623.31,1170.27 4422.18,2546.93 421.75,-254.41 1755.86,-1204.82 1985.12,-1551.83 416.38,-211.32 1041.53,-590.09 1443.71,-372.07zm-20121.81 5794.67l-90.23 -90.41 90.23 90.41zm-90.23 -90.41l-516.22 77.53 -457.72 -411.76c388.27,-308.58 380.12,-177.13 455.76,-742.54 168.8,309.47 165.32,405.65 608.41,444.16l-90.23 632.61zm90.23 -632.61l23.2 -82.66 66.62 52.1 -89.82 30.56zm15971.14 -994.16l-229.42 277.2c-60.25,-393.67 -136.09,-425.46 139.16,-654.15 129.61,218.93 82.13,9.35 90.26,376.95zm-5053.03 -451.9l23.23 -82.61 66.57 52.1 -89.8 30.51zm-3789.76 -451.9l199.31 268.45c-212.29,376.3 -93.37,574.51 -627.27,521.74 -215.59,-273.11 -232.23,-251.11 -113.43,-518.98 253.87,-84.7 -145.06,-11.11 90.23,0 163.35,7.62 169.9,-158.5 499.81,-815 54.78,336.91 98.43,312.25 -48.65,543.79zm-8030.67 -90.36l23.23 -82.61 66.61 52.05 -89.84 30.56zm90.23 -271.14c8.73,-8.71 26.11,13.88 26.11,26.22 0.03,5.06 11.12,11.09 10.76,10.73 -2.15,-2.12 -158.07,84.45 -36.87,-36.95zm-451.17 -180.71l94.22 163.62 -94.22 -163.62zm631.64 0l180.43 42.06 -180.43 -42.06zm-1894.89 90.36l-82.49 -23.21 52 -66.71 30.49 89.92zm1894.89 -90.36l-180.47 -90.4 180.47 90.4zm12091.12 -722.99l23.23 -82.69 66.61 52.05 -89.84 30.64zm-8030.69 -271.22c8.74,-8.71 26.06,13.88 26.14,26.22 0,5.08 11.11,11.09 10.76,10.73 -2.15,-2.12 -158.07,84.45 -36.9,-36.95zm9293.92 -361.49c1055.46,-489.29 2829.88,-107.12 3534.57,813.39 -551.15,314.3 -1268.34,91 -1857.03,-143.78l-1677.54 -669.61zm2436.34 -180.71l82.46 23.27 -51.98 66.65 -30.48 -89.92zm-17505.1 90.35l163.36 -94.37 -163.36 94.37zm6496.73 -451.85c81.08,-81.21 298.3,111.23 109.44,50.85 -2.37,-0.74 -233.09,72.95 -109.44,-50.85zm2075.32 361.5c364.08,-87.5 861.26,-825.49 1796.96,-519.06l-1321.85 945.66 -475.11 -426.6c-297.79,-72.29 -864.06,-277.35 -1067.31,-482.9 202.66,-452.77 82.46,-454.92 525.93,-797.94 344.17,266.29 331.14,226.17 451.16,482.9 442.37,-247.87 515.71,79.57 1054.72,134.74l-964.5 663.2zm-1353.48 -994.21l82.54 23.25 -52.03 66.72 -30.51 -89.97zm1827.85 -90.36c322.73,-193.48 504.46,40.73 781.2,247.94 -291.12,7.77 -590.14,-38.89 -781.2,-247.94zm698.66 2078.67l-570.67 -434.11c404.17,-527.75 1400.48,-1099.11 2006.67,-1169.45l-172.74 247.96 618.51 -377.16 193.58 105.99c914.11,-598.83 2350.2,-813.39 3428.84,-813.39l0 90.35c-3387.47,0 -3451.5,2595.45 -4586.41,2786.26 62.51,-373.02 263.38,-351.1 105.69,-692.08 -163.59,220.29 -197.42,422.03 -234.6,699.79 -299.02,-143.81 -577.06,-146.49 -788.87,-444.16zm-1714.41 -2440.16l82.51 23.2 -52 66.72 -30.51 -89.92zm-812.1 -1446.07l94.19 163.65 -94.19 -163.65z"/>
   <path class="fil1" d="M24383.26 10661.67l-23.23 82.62 -66.56 -52.08 89.79 -30.54zm180.46 -90.4l-180.46 90.4 180.46 -90.4zm0 0l23.22 -82.61 66.62 52.07 -89.84 30.54zm-3248.36 -2078.67c8.72,-8.72 26.07,13.82 26.14,26.21 0,5.06 11.09,11.07 10.74,10.74 -2.15,-2.13 -158.07,84.45 -36.88,-36.95zm992.55 -271.12l82.51 23.25 -52 66.7 -30.51 -89.95zm270.73 -723.02c81.06,-81.23 298.28,111.21 109.42,50.88 -2.35,-0.74 -233.09,72.98 -109.42,-50.88zm-270.73 723.02l-615.31 -112.71c-40.5,-381.79 -13.34,-370.19 -279.27,-587.08 390.65,-51.54 481.37,-77.22 647.1,-467.39 162.47,297.92 154.37,305.16 443.45,534.54 -246.56,320.9 -195.58,193.16 -195.97,632.64zm-3609.29 -903.8c8.72,-8.69 26.07,13.82 26.12,26.21 0,5.06 11.12,11.09 10.73,10.74 -2.14,-2.13 -158.04,84.45 -36.85,-36.95zm270.74 -180.71l-23.23 82.61 -66.62 -52.08 89.85 -30.53zm0 0l163.33 -94.37 -163.33 94.37zm-90.26 -451.91c8.69,-8.71 26.07,13.78 26.07,26.17 0.05,5.09 11.14,11.14 10.78,10.76 -2.14,-2.12 -158.02,84.48 -36.85,-36.93zm3879.97 2982.46c320.44,488.87 957.65,506.35 1345.77,699.79 -682.49,74.3 -1744.7,-320.64 -2173.32,-880.56l345.09 -436.69 211.78 255.93c-36.72,-412.96 -122.14,-392.08 -67,-896.01 356.75,257.58 899.92,190.68 1247.72,0 -133.95,-442.6 -364.46,-759.04 -812.07,-934.77 323.73,-264.01 469.97,-776.12 420.22,-1234.3 -562.06,270.29 -734.7,81.79 -1118.86,609.43 -307.45,-386.54 -479.85,-603.28 -1008.03,-692.05 -51.72,658.96 -268.97,719.26 157.25,1316.92l-420.16 18.5c-485.2,-637.77 -642.17,-949.88 -1497.91,-553.01 -182.88,-348.7 -284,-363.31 -353.19,-880.5 -229.62,84.04 -14.75,160.08 -247.51,-113.66 -502.75,591.72 -203.45,-276.13 -641.86,560.55 182.5,309.37 39.53,242.24 363.46,381.94l-337.65 83.27 74.84 314.97 -287.24 189.7 346.68 675.34c129.93,-26.6 543.92,-85.96 547.52,-86.98 949.21,-262.71 203.71,207.79 858.8,-286.25l-219.26 -805.86c890.15,-94.06 900.5,49.42 1295.29,706l-559.86 598.99 940.53 352.19c498.58,1366.95 1386.8,1723.69 2754.26,1873.72l-357.77 953.27c527.69,-226.96 1298.11,-311.29 1193.07,-1051.37l-180.74 -113.05c-77.48,-434.04 -289.05,-544.09 -721.59,-519.59l83.92 421.32 -1182.18 -527.18z"/>
   <path class="fil1" d="M11480.05 16536.19l-90.28 -90.38 90.28 90.38zm-90.28 -90.38l-82.48 -23.22 52.02 -66.72 30.46 89.94zm-360.88 -90.38c8.69,-8.71 26.06,13.8 26.09,26.22 0.05,5.06 11.12,11.06 10.73,10.73 -2.14,-2.14 -158.02,84.45 -36.82,-36.95zm-270.68 -90.38l94.19 163.64 -94.19 -163.64zm-1082.78 0l-163.41 94.4 163.41 -94.4zm1082.78 0l-82.54 -23.22 52 -66.72 30.54 89.94zm-812.12 -90.35l-270.66 90.35 270.66 -90.35zm721.87 -180.76l82.48 23.22 -51.97 66.72 -30.51 -89.94zm0 0l-82.51 -23.23 52 -66.72 30.51 89.95zm-180.48 -451.88l82.51 23.23 -52 66.69 -30.51 -89.92zm360.9 -90.4l-163.33 94.36 163.33 -94.36zm-360.9 90.4l-82.49 -23.25 51.98 -66.72 30.51 89.97zm-541.39 632.64l85.12 -156.03c-467.19,-52.51 -521.61,-77.35 -928.13,125.06l-166.05 549.03c478.3,-80.85 28.21,-126.49 665.37,-120.38 313.18,2.96 335.74,-73.42 555.06,-291.82l59.36 165.25c464.81,304.49 452.11,283.74 977.06,196.25l-79.85 324.01 344.33 -148.62c12.19,530.92 -157.15,137.1 -225.84,614.75 491.89,-259.87 542.03,-448.45 247.53,-896.01 350.79,0 603.64,-73.69 616.16,-436.39 -404.43,126.67 85.32,95.75 -443.45,173.02 -305.63,-552.76 12.34,-626.43 -804.38,-821.16l180.51 -180.74 1108.97 -700.94c-780.85,-464.63 -1021.3,229.23 -1348.73,685.45 -435.29,-588.04 -13.19,-1311.75 59.25,-1611.33 -493.29,326.95 -825.07,1115.38 -549.1,1693.95 -514.63,13.82 -916.66,-265.6 -1338,-315.02 208.13,288.03 295.93,299.81 549.98,502.65 341.46,272.68 466.08,266.59 720.97,468.26l-286.14 180.76z"/>
   <path class="fil1" d="M13086.56 4319.49l-379.31 59.87c-102.06,-116.4 -256.37,-269.28 -407.36,-382.38l482.18 -360.06 399.16 211.01 -94.67 471.56zm378.59 -707.26l-23.2 82.62 -66.62 -52.05 89.82 -30.57zm0 0c167.98,-365.04 114.6,-619.5 -15.49,-978.64 -417.48,83.73 -671.07,345.24 -729.56,790.14 -356.64,-482 -484.22,-215.28 -946.19,-436.36 -11.12,417.73 95.18,812.19 420.27,1053.51 -351.1,149.61 -550.92,568.14 -608.44,911.55 504.08,39.12 526.44,70.5 953.86,-157.56 155.21,396.61 341,466.72 564.61,730.81 216.77,-274.92 357.74,-631.1 188.2,-986.44 627.53,-67.49 521.51,-4.78 1000.29,-384.75 -185.15,-224.3 -545.14,-473.72 -827.55,-542.26z"/>
   <path class="fil1" d="M18157.24 9486.75c-519.31,-458.95 -1052.81,-492.5 -1301.51,-1407.7 -211.22,-777.14 -170.44,-1522.87 301.22,-2184.16 -629.52,102.7 -623.72,1664.62 -459.62,2162.06 214.82,651.16 737.71,1367 1459.91,1429.8z"/>
   <path class="fil1" d="M4532.16 10119.39l263.7 12.32c-296.54,162.54 -159.4,52.61 -263.7,-12.32zm-180.48 -451.87l85.12 155.97c-214.65,-18.35 -215.8,-73.98 -371.29,115.17l466.65 180.73c-283.56,77.78 -198.9,-28.31 -255.22,255.66l602.84 -90 -433.94 186.84c258.75,154.73 420.96,62.3 627.71,-81.33 -316.35,-356.51 -51.13,-94.68 -149.54,-482.9 -200.74,-12.55 -13.13,-77.78 -278.42,113.61l-34.12 -527.31 -259.79 173.56z"/>
   <path class="fil1" d="M21225.14 14819.02l-604.84 102.23c-283.46,-311.54 -414.67,-665.65 -357.66,-1059.08 84.7,-584.19 305.2,-697.67 421.11,-1121.82 -642.71,422.54 -974.08,2541.1 458.88,2267.15l82.51 -188.48z"/>
   <path class="fil1" d="M9043.77 13101.84l197.78 -90.35c57.26,-155.57 -111.62,-96.85 163.15,-137.38l90.23 -43.38 90.22 -90.38 90.28 -90.38 0 -90.38 -191.62 0 -169.34 221.9c-344.12,126 -500.6,280.29 -892.02,135.83 -345.65,-127.55 -480.67,-354.44 -822.39,-448.14 191.77,290.36 574.53,542.82 902.32,632.66l541.39 0z"/>
   <path class="fil1" d="M10330.22 7852.24c156.52,-212.47 201.67,-429.44 403.1,-649.83 187.99,-205.68 391.9,-353.93 558.56,-584.5 -505.97,68.76 -977.27,650.48 -961.66,1234.33z"/>
   <path class="fil1" d="M3975.29 10646.14c-74.31,-371.39 -388.13,-716.35 -781.15,-782.38 108.11,248.66 86.26,238.89 328.25,453.56 163.41,144.97 248.63,287.52 452.9,328.82z"/>
   <path class="fil1" d="M24112.56 17259.19l104.05 164.22c435.98,53.69 749.77,199.32 1296.14,61.46 463.94,-117.03 224.02,13.8 291.02,-217.92 -563.54,269.71 -1127.52,128.25 -1691.21,-7.76z"/>
   <path class="fil1" d="M5156.03 13801.63c-192.05,-268.15 -546.47,-500.42 -879.09,-503.52 91.48,431.26 523.6,462.31 879.09,503.52z"/>
   <path class="fil1" d="M16442.85 9577.13c-173.46,-228.85 -1211.72,-101.64 -1526.27,-67.12 350.81,174.01 1077.3,67.12 1526.27,67.12z"/>
   <path class="fil1" d="M18788.85 14096c14.82,166.66 128.48,1113.95 149.54,1159.43 236.13,-319.07 161.85,-934.62 -149.54,-1159.43z"/>
   <path class="fil1" d="M10216.82 16445.81l-294.34 355.8 353.24 442.42c270.63,-365.61 -15,-291.43 -58.9,-798.22z"/>
   <path class="fil1" d="M11028.89 15270.92l245.08 116.09c15.94,9.81 40.22,23.35 56.06,34.36 308.35,213.93 -11.83,225.28 495.47,195.56 -62.37,-198.72 -162.9,-217.94 -337.73,-444.13l-458.88 98.12z"/>
   <path class="fil1" d="M3931.49 13313.6l-468.23 192.05c591.11,474.14 618.43,-213.18 617.76,-584.54l-149.53 392.49z"/>
   <path class="fil1" d="M16344.85 13892.04l-604.73 -870.1c-4.35,409.76 200.56,811.81 604.73,870.1z"/>
   <path class="fil1" d="M14547.95 11746.19l902.3 -903.78c-306.71,83.2 -819.28,596.56 -902.3,903.78z"/>
   <path class="fil1" d="M21349.04 14445.23c245.44,-300.14 180.02,-571.62 -100.7,-793.36l100.7 793.36z"/>
   <path class="fil1" d="M3343.67 12680.94c-222.49,-165.77 -405.68,-212.4 -690.92,-196.22 72.06,62.27 -59.21,-7.77 133.97,108.08 16.69,10.02 171.54,91.1 181.76,94.78 246.51,88.72 185.44,81.41 375.19,-6.64z"/>
   <path class="fil1" d="M12743.33 12469.18l721.82 -722.99c-306.66,83.17 -638.85,415.84 -721.82,722.99z"/>
   <path class="fil1" d="M6246.57 12378.82l90.23 90.36 263.68 -12.24c-477.48,-401.28 175.58,-111.08 -232.73,-424.13l-121.18 346.01z"/>
   <path class="fil1" d="M23120.03 15813.18c0,-310.7 44.41,-670.64 -67.07,-896.04 -32.33,295.67 -85.63,694.42 67.07,896.04z"/>
   <path class="fil1" d="M4418.73 9027.16c36.97,-340.72 91.61,-260.61 -90.28,-511.31 -207.92,136.73 -116.42,132.29 90.28,511.31z"/>
   <path class="fil1" d="M5073.55 10390.56c236.62,342.56 -46.48,148.13 255.19,255.58l-129.75 -551.69 -125.44 296.11z"/>
   <path class="fil1" d="M4351.68 9667.52c-167.04,-254.87 -98.02,-206.78 -345.42,-255.64 60.86,307 4.01,225.59 345.42,255.64z"/>
   <path class="fil1" d="M4555.36 8755.99c200.13,-269.22 203.94,-214.84 67.05,-459.64 -132.23,241.45 -105.56,125.23 -67.05,459.64z"/>
   <path class="fil1" d="M4261.45 9215.64c-77.63,-284.02 28.26,-199.21 -255.19,-255.63 56.31,283.94 -28.37,177.82 255.19,255.63z"/>
   <path class="fil1" d="M23661.42 16897.69c-71.85,-265.83 -10.07,-190.11 -270.71,-361.5 71.83,265.86 10.05,190.12 270.71,361.5z"/>
   <path class="fil1" d="M18427.92 14005.59l-353.17 113.69c256.09,122.6 185.23,121.2 353.17,-113.69z"/>
   <path class="fil1" d="M24563.72 16445.81c277.63,-34.16 222.13,-34.06 270.7,-271.11l-270.7 271.11z"/>
   <path class="fil1" d="M23210.21 16174.7c-1.33,-375.45 32.04,-175.93 -90.18,-361.52 1.36,375.44 -32.02,175.93 90.18,361.52z"/>
   <path class="fil1" d="M2637.29 10390.56c-57.11,-276.38 -267.51,-2.51 -270.71,0l270.71 0z"/>
   <path class="fil1" d="M3268.9 12288.47l0 -271.14c-275.89,57.16 -2.45,267.92 0,271.14z"/>
   <polygon class="fil1" points="20864.2,12559.59 21225.14,12378.82 20976.86,12390.17 "/>
   <polygon class="fil1" points="9855.86,9215.64 9751.81,9051.44 9494.93,9034.85 "/>
   <path class="fil1" d="M5434.48 11746.19c-161.44,-102.16 -49.37,-174.22 -353.22,-23.23l353.22 23.23z"/>
   <path class="fil1" d="M16442.85 9577.13c161.39,102.17 49.34,174.22 353.16,23.28l-353.16 -23.28z"/>
   <path class="fil1" d="M12111.67 12107.68c-243.32,175.81 -188.07,74.41 -121.15,255.66l121.15 -255.66z"/>
   <polygon class="fil1" points="10126.57,9486.75 10117.6,9320.97 9946.09,9305.99 "/>
   <path class="fil1" d="M14457.67 9667.52l357.51 -31.79c-405.09,-79.01 -176.06,-83.02 -357.51,31.79z"/>
   <path class="fil1" d="M17525.62 14367.14c81.06,81.21 298.28,-111.23 109.44,-50.9 -2.37,0.77 -233.11,-72.95 -109.44,50.9z"/>
   <path class="fil1" d="M17796.3 14276.76c81.08,81.26 298.31,-111.23 109.45,-50.9 -2.33,0.77 -233.07,-72.98 -109.45,50.9z"/>
   <path class="fil1" d="M16262.37 9848.28c81.08,81.23 298.3,-111.26 109.46,-50.91 -2.4,0.75 -233.14,-72.95 -109.46,50.91z"/>
   <path class="fil1" d="M8141.45 9215.64c81.07,81.21 298.3,-111.28 109.41,-50.9 -2.32,0.74 -233.09,-72.96 -109.41,50.9z"/>
   <path class="fil1" d="M7148.92 12378.82c81.06,81.24 298.28,-111.23 109.42,-50.87 -2.35,0.71 -233.09,-72.98 -109.42,50.87z"/>
   <path class="fil1" d="M23932.1 16445.81c92.81,59.44 -35.54,176.27 262.99,23.23l-262.99 -23.23z"/>
   <path class="fil1" d="M25556.29 10390.56c-92.83,-59.44 35.52,-176.29 -262.96,-23.25l262.96 23.25z"/>
   <path class="fil1" d="M24563.72 16445.81l-263.66 12.27c296.49,162.59 159.35,52.66 263.66,-12.27z"/>
   <path class="fil1" d="M8051.22 10300.15c0,202.2 112,21.88 58.62,0 -1.13,-0.46 -58.62,-237.56 -58.62,0z"/>
   <path class="fil1" d="M14096.79 9757.9l268.53 -35.83c-394.05,-70.37 -163.87,-31.2 -268.53,35.83z"/>
   <path class="fil1" d="M21676.3 14999.8l268.56 -35.82c-394.1,-70.4 -163.87,-31.2 -268.56,35.82z"/>
   <path class="fil1" d="M7239.1 9396.35l268.58 -35.78c-394.05,-70.42 -163.89,-31.2 -268.58,35.78z"/>
   <polygon class="fil1" points="3359.13,12378.82 3382.33,12461.46 3448.95,12409.39 "/>
   <polygon class="fil1" points="2998.2,9757.9 3021.37,9840.53 3087.99,9788.46 "/>
   <polygon class="fil1" points="3359.13,11926.97 3441.64,11903.72 3389.67,11837 "/>
   <polygon class="fil1" points="6336.8,9667.52 6254.29,9690.74 6306.32,9757.46 "/>
   <polygon class="fil1" points="18788.85,15722.77 18871.36,15699.57 18819.39,15632.85 "/>
   <polygon class="fil1" points="15450.25,11655.81 15367.79,11679.03 15419.76,11745.75 "/>
   <polygon class="fil1" points="10848.38,13644.1 10930.92,13620.87 10878.92,13554.18 "/>
   <polygon class="fil1" points="24924.65,16084.32 25007.16,16061.06 24955.16,15994.37 "/>
   <polygon class="fil1" points="7870.74,9577.13 7847.56,9494.5 7780.95,9546.57 "/>
   <polygon class="fil1" points="7960.99,9667.52 7984.19,9750.15 8050.78,9698.08 "/>
   <polygon class="fil1" points="18788.85,14096 18765.65,14013.36 18699.06,14065.44 "/>
   <polygon class="fil1" points="24834.42,15090.16 24811.25,15007.5 24744.63,15059.6 "/>
   <polygon class="fil1" points="24834.42,15090.16 24857.62,15172.8 24924.22,15120.72 "/>
   <polygon class="fil1" points="2727.51,10480.91 2750.72,10563.58 2817.31,10511.47 "/>
   <polygon class="fil1" points="21225.14,12378.82 21307.62,12355.62 21255.65,12288.9 "/>
   <polygon class="fil1" points="15720.95,11203.93 15638.47,11227.16 15690.42,11293.88 "/>
   <polygon class="fil1" points="21225.14,14819.02 21307.62,14795.79 21255.65,14729.07 "/>
   <polygon class="fil1" points="15540.5,11475.07 15622.98,11451.82 15571.01,11385.15 "/>
   <polygon class="fil1" points="11660.51,14186.38 11578.02,14209.66 11630,14276.33 "/>
   <polygon class="fil1" points="14006.54,13192.22 13983.33,13109.58 13916.72,13161.69 "/>
   <polygon class="fil1" points="12472.6,12378.82 12449.42,12296.21 12382.81,12348.29 "/>
   <path class="fil1" d="M7148.92 10119.39c8.69,8.74 26.07,-38.46 26.09,-26.16 0,5.05 11.09,-11.12 10.73,-10.79 -2.12,2.15 -158.07,-84.42 -36.82,36.95z"/>
   <path class="fil1" d="M8502.38 9034.85c8.71,8.74 26.06,-38.45 26.09,-26.14 0,5.01 11.14,-11.11 10.78,-10.73 -2.14,2.1 -158.07,-84.5 -36.87,36.87z"/>
   <path class="fil1" d="M7600.06 9486.75c8.69,8.74 26.06,-38.45 26.11,-26.16 0,5.08 11.14,-11.14 10.73,-10.76 -2.12,2.12 -158.01,-84.45 -36.84,36.92z"/>
   <path class="fil1" d="M6336.8 10029.01c8.72,8.74 26.07,-38.46 26.12,-26.16 0,5.08 11.11,-11.09 10.73,-10.74 -2.15,2.1 -158.05,-84.47 -36.85,36.9z"/>
   <path class="fil1" d="M6156.32 10752.05c8.69,8.72 26.07,-38.48 26.12,-26.21 0.02,5.08 11.14,-11.07 10.75,-10.68 -2.14,2.07 -158.04,-84.51 -36.87,36.89z"/>
   <path class="fil1" d="M2727.51 10932.76c8.69,8.77 26.07,-38.43 26.09,-26.14 0.03,5.06 11.12,-11.11 10.76,-10.75 -2.14,2.12 -158.04,-84.46 -36.85,36.89z"/>
   <path class="fil1" d="M4893.09 11926.97c8.69,8.69 26.07,-38.48 26.09,-26.21 0,5.08 11.12,-11.09 10.73,-10.74 -2.14,2.13 -158.01,-84.45 -36.82,36.95z"/>
   <polygon class="fil1" points="18157.24,12378.82 18337.69,12107.68 "/>
   <polygon class="fil1" points="7600.06,12469.18 7436.72,12374.86 "/>
   <polygon class="fil1" points="15450.25,11655.81 15540.5,11475.07 "/>
   <polygon class="fil1" points="12562.83,12559.59 12472.6,12378.82 "/>
   <polygon class="fil1" points="12743.33,12469.18 12653.05,12559.59 "/>
   <polygon class="fil1" points="18067.01,12559.59 18157.24,12378.82 "/>
   <polygon class="fil1" points="20864.2,12559.59 20773.98,12649.97 "/>
   <polygon class="fil1" points="20773.98,12649.97 20683.75,12740.35 "/>
   <polygon class="fil1" points="3990.77,12649.97 3896.56,12813.61 "/>
   <polygon class="fil1" points="5614.93,11836.57 5434.48,11746.19 "/>
   <polygon class="fil1" points="17976.76,12830.73 18067.01,12559.59 "/>
   <polygon class="fil1" points="9494.93,9034.85 9331.57,8940.54 "/>
   <polygon class="fil1" points="15811.21,11113.55 15720.95,11203.93 "/>
   <polygon class="fil1" points="15811.21,11113.55 15901.46,10932.76 "/>
   <polygon class="fil1" points="9946.09,9305.99 9855.86,9215.64 "/>
   <polygon class="fil1" points="14367.5,13463.39 14409.5,13644.07 "/>
   <polygon class="fil1" points="13104.21,11113.55 13374.9,10932.76 "/>
   <polygon class="fil1" points="18608.4,13915.24 18427.92,14005.59 "/>
   <polygon class="fil1" points="4261.45,9215.64 4303.46,9396.35 "/>
   <polygon class="fil1" points="15991.63,10842.41 15901.46,10932.76 "/>
   <polygon class="fil1" points="13374.9,10932.76 13645.63,10752.05 "/>
   <polygon class="fil1" points="6697.71,9396.35 6878.14,9354.29 "/>
   <polygon class="fil1" points="6697.71,9396.35 6517.26,9486.75 "/>
   <polygon class="fil1" points="16081.89,10752.05 15991.63,10842.41 "/>
   <polygon class="fil1" points="6517.26,9486.75 6427.03,9577.13 "/>
   <polygon class="fil1" points="16172.11,10661.67 16081.89,10752.05 "/>
   <polygon class="fil1" points="22668.82,9577.13 22488.39,9305.99 "/>
   <polygon class="fil1" points="22217.68,14819.02 22037.26,14861.13 "/>
   <polygon class="fil1" points="6427.03,9577.13 6336.8,9667.52 "/>
   <polygon class="fil1" points="7960.99,9667.52 7870.74,9577.13 "/>
   <polygon class="fil1" points="22759.07,9667.52 22668.82,9577.13 "/>
   <polygon class="fil1" points="13826.11,10661.67 13645.63,10752.05 "/>
   <polygon class="fil1" points="2998.2,9757.9 2727.51,9667.52 "/>
   <polygon class="fil1" points="10397.25,10029.01 10307,9757.9 "/>
   <polygon class="fil1" points="18698.62,15903.56 18788.85,15722.77 "/>
   <polygon class="fil1" points="18698.62,15903.56 18608.4,15993.94 "/>
   <polygon class="fil1" points="23480.94,16084.32 23390.71,15903.56 "/>
   <polygon class="fil1" points="3359.13,11926.97 3268.9,12017.33 "/>
   <polygon class="fil1" points="16262.37,10571.27 16172.11,10661.67 "/>
   <polygon class="fil1" points="15540.5,10752.05 15450.25,10842.41 "/>
   <polygon class="fil1" points="24924.65,16084.32 24834.42,16174.7 "/>
   <polygon class="fil1" points="23661.42,16265.05 23571.17,16174.7 "/>
   <polygon class="fil1" points="23300.49,16355.43 23210.21,16174.7 "/>
   <polygon class="fil1" points="23751.65,16355.43 23661.42,16265.05 "/>
   <polygon class="fil1" points="14006.54,10571.27 13826.11,10661.67 "/>
   <polygon class="fil1" points="23932.1,16445.81 23751.65,16355.43 "/>
   <polygon class="fil1" points="16352.59,10480.91 16262.37,10571.27 "/>
   <polygon class="fil1" points="14277.24,12107.68 14457.67,11836.57 "/>
   <polygon class="fil1" points="23390.71,16536.19 23300.49,16355.43 "/>
   <polygon class="fil1" points="14547.95,11746.19 14457.67,11836.57 "/>
   <polygon class="fil1" points="3359.13,12378.82 3268.9,12288.47 "/>
   <polygon class="fil1" points="2727.51,10480.91 2637.29,10390.56 "/>
   <polygon class="fil1" points="23751.65,16988.07 23661.42,16897.69 "/>
   <polygon class="fil1" points="23841.87,17078.48 23751.65,16988.07 "/>
   <polygon class="fil1" points="2366.58,10390.56 2186.15,10432.62 "/>
   <polygon class="fil1" points="24112.56,17259.19 23841.87,17078.48 "/>
   <polygon class="fil1" points="23571.17,16174.7 23480.94,16084.32 "/>
  </g>
 </g>
</svg>
