<?xml version="1.0" encoding="UTF-8"?>
<!DOCTYPE svg PUBLIC "-//W3C//DTD SVG 1.1//EN" "http://www.w3.org/Graphics/SVG/1.1/DTD/svg11.dtd">
<!-- Creator: CorelDRAW 2018 (64-Bit Evaluation Version) -->
<svg xmlns="http://www.w3.org/2000/svg" xml:space="preserve" width="50mm" height="25mm" version="1.1" style="shape-rendering:geometricPrecision; text-rendering:geometricPrecision; image-rendering:optimizeQuality; fill-rule:evenodd; clip-rule:evenodd"
viewBox="0 0 5000 2500"
 xmlns:xlink="http://www.w3.org/1999/xlink">
 <defs>
  <style type="text/css">
   <![CDATA[
    .fil7 {fill:#0293B4}
    .fil11 {fill:#562D38}
    .fil6 {fill:#683946}
    .fil10 {fill:#6FD0D9}
    .fil12 {fill:#997983}
    .fil2 {fill:#B9B9B9}
    .fil0 {fill:#DEDEDE}
    .fil5 {fill:#E95052}
    .fil1 {fill:#FA6302}
    .fil8 {fill:#FD9B9C}
    .fil4 {fill:#FDB432}
    .fil9 {fill:#FDEC82}
    .fil3 {fill:#FF5F61}
   ]]>
  </style>
 </defs>
 <g id="Layer_x0020_1">
  <metadata id="CorelCorpID_0Corel-Layer"/>
  <g id="_2824412597376">
   <path class="fil0" d="M3362.09 726.36l-128.64 10.5c-136.29,-13.2 -391.8,33.38 -521.74,62.63 -79.78,17.95 -162.04,37.8 -236.17,59.9 -53.65,15.99 -193.1,67.31 -232.53,67.94 -60.16,-0.3 -19.25,-2.7 -34.86,16.89 60.71,-6.5 23.69,-6.12 32.84,35.31 0.35,1.54 -1.3,50.01 0,62.73l-17.44 322.49c66.13,43.39 484.74,104.57 599.94,122.48 213.55,33.23 424.63,47.3 652.32,55.48 -1.88,-12.14 -82.41,-207 -4.43,-312.8 140.44,-360.8 507.38,-243.35 576.72,-24.47 44.29,139.83 -12.39,171.85 -29.74,271.22 -9.08,43.59 1.69,17.3 -19.9,45.68 149.54,2.95 303.11,-49.8 421.38,-50.22l13.27 -337.24 9.29 -105.91c-74.45,-28.54 -157.98,-84.57 -233.66,-115.78 -119.24,-49.19 -405.06,-137.03 -539.53,-149.64 -91.59,-8.59 -229.45,-16.91 -307.12,-37.19z"/>
   <path class="fil1" d="M2044.48 1449.84l4.54 -72.51c-218.3,14.93 -460.17,-5.62 -673.54,-38.69 -61.04,-9.46 -514.35,-98.25 -568.5,-162.72 19.72,-14.04 5.67,-6.28 33.45,-17.93l105.51 -28.91c145.4,-35.03 287,-59.23 442.11,-68.96 209.36,-13.14 467.1,-16.19 674.67,21.55l1.03 -14.05 -1.94 -53.33c-224.96,-88.44 -836.83,-101.56 -1107.29,-82.75 -240.41,16.71 -795.56,106.99 -956.4,210.34 25.06,28.15 62.25,38.53 100.6,54.28 599.61,246.5 1304.83,338.41 1945.76,253.68z"/>
   <path class="fil2" d="M4018.36 1476.66c-20.63,13.02 -13.31,7.97 -35.61,26.88 -87.99,74.61 -175.67,131.65 -328.67,75.22 -130.75,-48.23 -205.7,-170.73 -182.7,-348.85 -77.98,105.8 2.55,300.66 4.43,312.8 -227.69,-8.18 -438.77,-22.25 -652.32,-55.48 -115.2,-17.91 -533.81,-79.09 -599.94,-122.48l-0.99 12.93c0.06,25.23 0.3,55.06 -0.89,80.02 -0.3,6.38 -3.45,38.91 -5.29,43.49 -12.34,30.64 12.17,18.46 -22.72,22.84l23.34 16.62c51.82,8.91 174.02,71.68 242.3,97.23 83.84,31.37 171.14,60.41 257.65,85.56 212.57,61.79 376.57,87.15 605.5,111.54 415.27,-2.3 775.23,-44.33 1094.47,-203.39l2.92 -159.47c-118.27,0.42 -271.84,53.17 -421.38,50.22 21.59,-28.38 10.82,-2.09 19.9,-45.68z"/>
   <path class="fil3" d="M2207.3 391.74c-90.67,-9.87 -248.03,53.54 -331.21,94.57 -14.31,7.06 -31.74,16.26 -44.97,24.39l-41.72 31.73 71.92 39.29c26.45,11.06 44.91,19.21 72.86,32.08 132.38,60.99 284.78,154.62 308.83,313.53 39.43,-0.63 178.88,-51.95 232.53,-67.94 74.13,-22.1 156.39,-41.95 236.17,-59.9 129.94,-29.25 385.45,-75.83 521.74,-62.63 -13.51,-53.16 -14.14,-38.63 -91.14,-93.64 -177.38,-126.73 -392.32,-222.37 -612.11,-252.63 -110.23,-15.18 -216.06,3.04 -322.9,1.15z"/>
   <path class="fil3" d="M2153.49 1675.35c-103.74,53.27 -24.88,60.05 -321.3,172.2l-47.33 25.83c73.92,-5.83 24.09,-11.11 68.99,19.72l177.91 93.95c47.57,18.11 91.69,26.64 144.74,46.53l71.02 23.04c193.13,37.97 351.23,55.52 549.48,15.47 43.6,-8.82 116.07,-45.28 126.04,-12.62 85.42,-22.25 300.64,-123.78 336,-182.37 -265.84,69.72 -730.4,-58.91 -1004.36,-139.12 -13.71,-4.01 -61.27,-16.93 -65.87,-19 -47.06,-21.2 -32.32,-12.64 -35.32,-43.63z"/>
   <path class="fil4" d="M2049.02 1377.33l3.1 -28.89c-100.74,0.57 -296.42,-66.31 -332.84,-134.14 85.21,-67.7 213.71,-111.55 342.68,-103.35l0.76 -29.28c-207.57,-37.74 -465.31,-34.69 -674.67,-21.55 -155.11,9.73 -296.71,33.93 -442.11,68.96l-105.51 28.91c-27.78,11.65 -13.73,3.89 -33.45,17.93 54.15,64.47 507.46,153.26 568.5,162.72 213.37,33.07 455.24,53.62 673.54,38.69z"/>
   <path class="fil5" d="M2217 1540.65c-15.35,79.08 -36.76,80.03 -63.51,134.7 3,30.99 -11.74,22.43 35.32,43.63 4.6,2.07 52.16,14.99 65.87,19 273.96,80.21 738.52,208.84 1004.36,139.12 29.62,-4.05 40.51,-7.77 63.41,-42.12 -228.93,-24.39 -392.93,-49.75 -605.5,-111.54 -86.51,-25.15 -173.81,-54.19 -257.65,-85.56 -68.28,-25.55 -190.48,-88.32 -242.3,-97.23z"/>
   <path class="fil6" d="M3975.56 1241.91c16.56,41.53 11.89,95.99 -4.55,137.92 -41.14,106 -177.53,186.41 -304.18,121.85 -92.53,-47.18 -185.59,-198.44 -95.09,-307.85 18.96,-46.46 51.88,-72.77 100.25,-93.27 104.42,-81.53 281.93,23.29 303.57,141.35zm-504.18 -12c-23,178.12 51.95,300.62 182.7,348.85 153,56.43 240.68,-0.61 328.67,-75.22 22.3,-18.91 14.98,-13.86 35.61,-26.88 17.35,-99.37 74.03,-131.39 29.74,-271.22 -69.34,-218.88 -436.28,-336.33 -576.72,24.47z"/>
   <path class="fil7" d="M3571.74 1193.83c-90.5,109.41 2.56,260.67 95.09,307.85 126.65,64.56 263.04,-15.85 304.18,-121.85 -39.47,-6.43 -365.25,-160.89 -399.27,-186z"/>
   <path class="fil3" d="M4779.13 1302.98c-90.21,-42.15 -258.86,-166.71 -346.02,-168.1l-13.27 337.24c60.64,-16.43 127.61,-27.18 193.01,-48.5l117.57 -43.58c60.21,-6.97 24.08,-29.01 45.28,12.88 28.36,-20.63 27.11,-15.17 42,-48.24l-38.57 -41.7z"/>
   <path class="fil5" d="M1784.86 1873.38l-57.86 7.35c42.59,96.32 397.45,210.52 542.17,235.49 208.55,35.99 483.91,22.42 653.87,-56.75 -9.97,-32.66 -82.44,3.8 -126.04,12.62 -198.25,40.05 -356.35,22.5 -549.48,-15.47l-71.02 -23.04c-53.05,-19.89 -97.17,-28.42 -144.74,-46.53l-177.91 -93.95c-44.9,-30.83 4.93,-25.55 -68.99,-19.72z"/>
   <path class="fil8" d="M2207.3 391.74c106.84,1.89 212.67,-16.33 322.9,-1.15 219.79,30.26 434.73,125.9 612.11,252.63 77,55.01 77.63,40.48 91.14,93.64l128.64 -10.5c-47.43,-90.38 -353.69,-253.51 -474.82,-297.58 -98.39,-35.79 -210.86,-61.35 -330.12,-67.7 -64.66,-3.44 -129.2,-5.21 -193.79,-0.85l-156.06 31.51z"/>
   <path class="fil9" d="M2052.12 1348.44l9.84 -237.49c-128.97,-8.2 -257.47,35.65 -342.68,103.35 36.42,67.83 232.1,134.71 332.84,134.14z"/>
   <path class="fil6" d="M2063.75 1067.62l-1.03 14.05 -0.76 29.28 -9.84 237.49 -3.1 28.89 -4.54 72.51c3.72,36.18 -4.86,12.1 23.63,23.95 -19.64,-65.18 -11.15,-77.86 6.07,-144.06 10.61,19.55 18.37,32.02 20.73,61.69 1.76,-3.44 10.78,-35.64 19.54,-49.5 25.2,22.23 76.88,24.65 108.11,35.76l0.99 -12.93 17.44 -322.49 -177.24 25.36z"/>
   <path class="fil10" d="M3671.99 1100.56c-48.37,20.5 -81.29,46.81 -100.25,93.27 34.02,25.11 359.8,179.57 399.27,186 16.44,-41.93 21.11,-96.39 4.55,-137.92l-303.57 -141.35z"/>
   <path class="fil5" d="M4419.84 1472.12l-2.92 159.47c50.68,-36.18 124.72,-67.18 187.51,-107.87 59.73,-38.71 126.96,-86.08 171.27,-130.8 -21.2,-41.89 14.93,-19.85 -45.28,-12.88l-117.57 43.58c-65.4,21.32 -132.37,32.07 -193.01,48.5z"/>
   <path class="fil8" d="M4442.4 1028.97l-9.29 105.91c87.16,1.39 255.81,125.95 346.02,168.1 -36.27,-80.88 -265.62,-241.48 -336.73,-274.01z"/>
   <path class="fil11" d="M2068.11 1473.79l125.55 50.24c34.89,-4.38 10.38,7.8 22.72,-22.84 1.84,-4.58 4.99,-37.11 5.29,-43.49 1.19,-24.96 0.95,-54.79 0.89,-80.02 -31.23,-11.11 -82.91,-13.53 -108.11,-35.76 -8.76,13.86 -17.78,46.06 -19.54,49.5 -2.36,-29.67 -10.12,-42.14 -20.73,-61.69 -17.22,66.2 -25.71,78.88 -6.07,144.06z"/>
   <path class="fil7" d="M3671.99 1100.56l303.57 141.35c-21.64,-118.06 -199.15,-222.88 -303.57,-141.35z"/>
   <path class="fil12" d="M2208.15 944.22c-42.27,15.77 -135.59,17.57 -146.34,70.07l1.94 53.33 177.24 -25.36c-1.3,-12.72 0.35,-61.19 0,-62.73 -9.15,-41.43 27.87,-41.81 -32.84,-35.31z"/>
  </g>
 </g>
</svg>
