<svg xmlns="http://www.w3.org/2000/svg" version="1.1" xmlns:xlink="http://www.w3.org/1999/xlink" xmlns:svgjs="http://svgjs.dev/svgjs" viewBox="0 0 800 800"><defs><linearGradient x1="50%" y1="0%" x2="50%" y2="100%" id="wwwhirl-grad"><stop stop-color="hsl(206, 75%, 49%)" stop-opacity="1" offset="45%"></stop><stop stop-color="hsl(331, 90%, 56%)" stop-opacity="1" offset="100%"></stop></linearGradient></defs><g stroke-width="2" stroke="url(#wwwhirl-grad)" fill="none" stroke-linecap="round"><path d="M-845.7499989891049 561.9885763967436C-798.5624976799702 510.3182624632411 -713.6249953235275 331.6663825068568 -619.249992705258 313.9710695159313C-524.8749900869884 296.2757565250057 -487.12498903968066 476.343261520664 -392.7499864214111 477.05107404030105C-298.3749838031416 477.7588865599381 -260.62498275583357 301.7966941781745 -166.24998013756408 317.36856961018896C-71.87497751929459 332.94044504220346 -34.124976471986656 576.5695143012663 60.25002614628295 551.7960761139706C154.62502876455255 527.0226379266749 192.37502981186003 219.69044190027995 286.75003243012975 198.4560663111693C381.12503504839924 177.22169072205867 418.8750360957072 419.4351349418474 513.2500387139767 449.8710732862394C607.6250413322462 480.3070116306314 645.3750423795541 312.6970069805846 739.7500449978236 344.5485703642506C834.1250476160931 376.4001337479166 871.8750486634008 608.4210776849322 966.2500512816705 602.758577527836C1060.6250538999404 597.0960773707399 1098.3750549472481 333.6482575618404 1192.7500575655176 317.36856961018896C1287.1250601837878 301.08888165853745 1324.8750612310955 541.6035758311974 1419.2500638493643 524.6160753599089C1513.625066467634 507.6285748886204 1598.5625688240766 295.9926315171509 1645.7500701332115 235.82856734800407 " transform="rotate(99, 400, 400)"></path><path d="M-807.999999250932 557.079866798902C-762.2424222238922 506.97531995429347 -679.8787835752205 333.73713332992077 -588.363629521141 316.57804194478086C-496.8484754670614 299.41895055964096 -460.24241384542955 474.0298644948247 -368.72725979135 474.7162281502304C-277.21210573727035 475.402591805636 -240.6060441156385 304.7725870718046 -149.09089006155898 319.87258749072777C-57.57573600747946 334.9725879096509 -20.969674385847384 571.2189581002573 70.54547966823202 547.1962301610614C162.06063372231165 523.1735022218655 198.6666953439435 225.15440304475538 290.1818493980229 204.56349338258747C381.69700345210254 183.97258372041958 418.3030650737344 418.8462266002148 509.818219127814 448.35986378265545C601.3333731818934 477.8735009650962 637.9394348035253 315.3425873650508 729.4545888576051 346.2289518583027C820.9697429116845 377.1153163515545 857.5758045333162 602.1053225935091 949.0909585873958 596.6144133502644C1040.6061126414756 591.1235041070196 1077.2121742631073 335.65895156505644 1168.727328317187 319.87258749072777C1260.2424823712668 304.086223416399 1296.8485439928986 537.3125935232208 1388.3636980469782 520.8398657934865C1479.8788521010574 504.3671380637522 1562.2424907497289 299.14440509747874 1608.000067776769 240.803494388003 " transform="rotate(96, 400, 400)"></path><path d="M-770.2499995127589 552.1710770924177C-725.9223467678141 503.63229733670323 -646.1325718269134 335.8078040443422 -557.4772663370238 319.18493426498793C-468.8219608471343 302.5620644856336 -433.35983865117845 471.71638736034294 -344.7045331612889 472.3813021515171C-256.0492276713993 473.04621694269133 -220.58710547544342 307.74839985679216 -131.93179998555388 322.37652526262394C-43.276494495664224 337.0046506684557 -7.814372299708339 565.8683217906057 80.8409331901812 542.5963040995097C169.49623868007086 519.3242864084136 204.95836087602652 230.61828408058824 293.61366636591606 210.67084034536308C382.2689718558056 190.7233966101379 417.7310940517616 418.2572381499395 506.38639954165114 446.84857417042895C595.0417050315407 475.43991019091834 630.5038272274967 317.98808764087437 719.1591327173862 347.9092532437121C807.8144382072758 377.83041884654983 843.2765604032315 595.7894873934433 931.9318658931211 590.47016906405C1020.5871713830109 585.1508507346566 1056.0492935789666 337.6695654596299 1144.7045990688564 322.37652526262394C1233.3599045587462 307.083485065618 1268.8220267547022 533.0215311066015 1357.4773322445913 517.0635761184215C1446.1326377344808 501.1056211302414 1525.922412675381 302.296098569164 1570.2500654203263 245.77834131935936 " transform="rotate(93, 400, 400)"></path><path d="M-732.4999997745858 547.2623713092734C-689.6022713117361 500.28935864245284 -612.3863600786063 337.8785586821035 -526.5909031529068 321.7919105085348C-440.7954462272072 305.7052623349661 -406.47726345692735 469.40299414920094 -320.6818065312278 470.0464600761437C-234.88634960552827 470.6899260030865 -200.56816683524823 310.7242965651196 -114.77270990954867 324.88054695786C-28.977252983849098 339.0367973506004 5.340929786430934 560.517769404294 91.1363867121305 537.9964619612979C176.93184363782996 515.4751545183017 211.25002640810976 236.0822490397609 297.04548333380944 216.7782712314785C382.8409402595089 197.4742934231961 417.1591230297888 417.66833362300406 502.95457995548827 445.3373684815422C588.7500368811882 473.0064033400804 623.0682196514681 320.6336718400379 708.8636765771673 349.58963855246145C794.6591335028668 378.5456052648851 828.9773162731467 589.4737361167176 914.7727731988464 584.3260087011756C1000.5682301245461 579.1782812856336 1034.8864128948262 339.6802632775432 1120.681869820526 324.88054695786C1206.4773267462256 310.08083063817685 1240.795509516505 528.7305526133223 1326.5909664422047 513.2873703666963C1412.3864233679037 497.8441881200704 1489.6023346010334 305.44787596418905 1532.5000630638838 250.75327217405555 " transform="rotate(90, 400, 400)"></path><path d="M-694.7500000364128 542.3536006762754C-653.282195855658 496.94635509834893 -578.6401483302993 339.94924847001124 -495.70453996878973 324.3988219022282C-412.76893160728014 308.8483953344451 -379.59468826267624 467.0895360882054 -296.65907990116665 467.71155315091676C-213.7234715396571 468.33357021362815 -180.54922819505305 313.70012842359347 -97.61361983354357 327.3845038032425C-14.678011472033972 341.0688791828916 18.49623187256998 555.1671521681286 101.43184023407957 533.3965549732325C184.36744859558917 511.62595777833616 217.541691940193 241.54614914908007 300.4773003017026 222.8856372677404C383.41290866321197 204.22512538640075 416.58715200781603 417.07936424621516 499.5227603693256 443.826097942802C582.4583687308352 470.5728316393889 615.6326120754393 323.2791911893478 698.5682204369486 351.2699590113573C781.5038287984582 379.2607268333668 814.6780721430621 583.1579199901382 897.6136805045717 578.1817834884475C980.5492888660815 573.205646986757 1013.7235322106853 341.6908962456029 1096.659140572195 327.3845038032425C1179.594748933705 313.0781113608821 1212.7689922783088 524.4395092701893 1295.7046006398182 509.5110997651176C1378.6402090013275 494.58269026004587 1453.282256526686 308.5995885093606 1494.7500607074408 255.7281381788982 " transform="rotate(87, 400, 400)"></path><path d="M-657.0000002982398 537.4448758196447C-616.9621203995799 493.6033973306122 -544.8939365819922 342.01998403428615 -464.81817678467263 327.00577907228876C-384.742416987353 311.9915741102913 -352.7121130684252 464.7761238035771 -272.6363532711056 465.37669200205704C-192.56059347378596 465.977260200537 -160.53028955485797 316.6760060584345 -80.45452975753835 329.8885064249922C-0.3787699602188468 343.10100679155 31.651533958709138 549.8165807083305 111.72729375602876 528.7966937615342C191.80305355334838 507.7768068147378 223.83335747227613 247.01009503476644 303.90911726959575 228.99304908036953C383.9848770669155 210.9760031259726 416.01518098584324 416.4904406457934 496.090940783163 442.314873180429C576.1667005804825 468.13930571506455 608.1970044994105 325.9247563150249 688.27276429673 352.9503252466203C768.3485240940495 379.97589417821564 800.3788280129775 576.842149639926 880.454587810297 572.0376040520867C960.5303476076167 567.2330584642476 992.5606515265447 343.7015749900299 1072.6364113238644 329.8885064249922C1152.712171121184 316.0754378599546 1184.7424750401121 520.1485117034237 1264.8182348374314 505.73487493990615C1344.893994634751 491.3212381763886 1416.9621784523383 311.75134683089937 1457.0000583509982 260.7030499601081 " transform="rotate(84, 400, 400)"></path><path d="M-619.250061595223 532.5361051866468C-580.6421059786582 490.2603937865083 -511.1477858688414 344.09067382219393 -433.9318746357118 329.6126904659821C-356.7159634025822 315.13470710977026 -325.82959890933034 462.46266574258163 -248.6136876762007 463.04178507683014C-171.39777644307105 463.62090441107864 -140.51141194981915 319.6518379169084 -63.2955007166895 332.3924632703748C13.920410516440029 345.13308862384116 44.806775009692046 544.4659634721653 122.02268624282169 524.1967867734688C199.23859747595134 503.9276100747723 230.124961969203 252.4739951440856 307.34087320233266 235.10041511663144C384.5567844354623 217.72683508917726 415.4431489287142 415.90147126900445 492.65906016184385 440.80360264168877C569.8749713949735 465.7057340143731 600.7613358882254 328.5702756643349 677.977247121355 354.6306457055161C755.1931583544847 380.69101574669736 786.0795228477364 570.5263335133466 863.295434080866 565.8933788393588C940.5113453139957 561.260424165371 971.3977098072476 345.7122079580896 1048.6136210403777 332.3924632703748C1125.8295322735073 319.0727185826599 1156.715896766759 515.8574683602908 1233.9318079998884 501.95860433832746C1311.147719233018 488.0597403163641 1380.6420393428348 314.9030593760709 1419.2499949593994 265.6779159649508 " transform="rotate(81, 400, 400)"></path><path d="M-581.5000618570499 527.6273917741079C-544.3220305225801 486.9174474628634 -477.40157412053435 346.16142083056064 -403.04551145159473 332.2196590801345C-328.68944878265506 318.27789732970825 -298.9470237150792 460.1492649020451 -224.59096104613957 460.70693537206216C-150.23489837719995 461.2646058420793 -120.49247330962407 322.6277269958413 -46.1364106406844 334.89647733621626C28.21965202825527 347.1652276765913 57.962077095831205 539.115403456459 132.31813976477088 519.5969370058624C206.67420243371043 500.07847055526577 236.41662750128626 257.93795247386373 310.7726901702259 241.20783837335233C385.1287528391654 224.4777242728409 414.87117790674165 415.31255911267453 489.2272405756812 439.2923893234075C563.5833032446208 463.2722195341406 593.3257283121966 331.21585223410375 667.6817909811364 356.3110233848709C742.0378536500757 381.40619453563806 771.7802787176515 564.2105746072261 846.1363413865913 559.7492108470898C920.4924040555313 555.2878470869534 950.2348291231071 347.7228981466084 1024.5908917920467 334.89647733621626C1098.9469544609867 322.0700565258242 1128.6893795285623 511.5664822376169 1203.0454421975019 498.18239095720776C1277.4015048664412 484.7982996767986 1344.321961268487 318.0548291417015 1381.4999926029568 270.65283919025245 " transform="rotate(78, 400, 400)"></path><path d="M-543.7500621188768 522.7186249558072C-508.00195506650203 483.57444773345685 -443.65536237222733 348.23211443316563 -372.1591482674777 334.8265742885251C-300.662934162728 321.4210341438845 -272.06444852082814 457.83581065574685 -200.5682344160785 458.3720322615325C-129.0720203113288 458.9082538673182 -100.47353466942889 325.6035626690124 -28.97732056467919 337.4004379962961C42.518893540070394 349.1973133235798 71.11737918197036 533.764790034991 142.61359328672006 514.9970338324943C214.10980739146964 496.22927762999757 242.7082930333695 263.4018563978802 314.2045071381191 247.3152082243115C385.70072124286867 231.22856005074283 414.29920688476886 414.72359355058285 485.79542098951833 437.7811225993646C557.291635094268 460.8386516481464 585.890120736168 333.86137539811097 657.3863348409177 357.991347658464C728.8825489456672 382.121319918817 757.4810345875669 557.8947622953441 828.9772486923166 553.6049894490591C900.4734627970665 549.3152166027742 929.0719484389663 349.7335349293654 1000.5681625437162 337.4004379962961C1072.0643766484661 325.06734106322676 1100.6628622903656 507.27544270918133 1172.159076395115 494.4061241703264C1243.6552904998648 481.53680563147145 1308.0018831941395 321.2065455015703 1343.7499902465142 275.6277090097924 " transform="rotate(75, 400, 400)"></path><path d="M-506.0000623807038 517.8099000991765C-471.681879610424 480.23148996572013 -409.90915062392025 350.3028499974406 -341.2727850833606 337.43353145858566C-272.6364195428009 324.5642129197307 -245.18187332657703 455.5223983711186 -176.54550778601737 456.03717111267275C-107.9091422454577 456.551943854227 -80.45459602923381 328.57944030385346 -11.81823048867409 339.9044406180458C56.81813505188563 351.22944093223816 84.27268126810952 528.414218575193 152.90904680866913 510.397172620796C221.54541234922885 492.3801266663992 248.99995856545263 268.86580228356655 317.63632410601235 253.4226200369406C386.2726896465721 237.97943779031468 413.72723586279596 414.1346699501611 482.36360140335546 436.2698978369916C550.9999669439153 458.40512572382215 578.4545131601392 336.5069405237881 647.090878700699 359.671713893727C715.7272442412584 382.83648726366584 743.1817904574823 551.578991945132 811.8181559980419 547.4608100126982C880.4545215386017 543.3426280802646 907.9090677548256 351.74421367379233 976.5454332953855 339.9044406180458C1045.181798835945 328.06466756229923 1072.636345052169 502.9844451424156 1141.2727105927286 490.62989934511484C1209.909076133288 478.2753535478141 1271.6818051197918 324.35830382310905 1305.9999878900717 280.60262079100227 " transform="rotate(72, 400, 400)"></path><path d="M-468.2500626425308 512.9011256514814C-435.3618041543459 476.88848260691896 -376.1629388756132 352.3735359706511 -310.3864218992435 340.0404390375818C-244.60990492287385 327.70734210451246 -218.29929813232593 453.2089364954258 -152.5227811559563 453.7022603727486C-86.74626417958655 454.1955842500714 -60.435657389038624 331.5552683476301 5.3408595873310105 342.4083936487311C71.11737656370076 353.26151894983207 97.42798335424868 523.0635975243305 163.20450033061832 505.79726181803346C228.98101730698806 488.5309261117364 255.29162409753576 274.3296985781884 321.0681410739055 259.52998225850524C386.84465805027526 244.73026593882207 413.1552648408232 413.5456967586749 478.9317818171929 434.7586234835542C544.7082987935623 455.9715502084334 571.0189055841104 339.1524560584008 636.7954225604801 361.35203053792554C702.5719395368496 383.55160501745036 728.8825463273974 545.2631720038553 794.6590633037672 541.316580985273C860.4355802801372 537.3699899666908 886.746187070685 353.75484282715485 952.5227040470547 342.4083936487311C1018.2992210234245 331.0619444703073 1044.6098278139725 498.6933979845855 1110.386344790342 486.85362492883894C1176.1628617667116 475.0138518730924 1235.3617270454442 327.51001255358335 1268.2499855336291 285.5774829811477 " transform="rotate(69, 400, 400)"></path><path d="M-430.5000629043577 507.9923893507588C-399.0417286982679 473.54551339509044 -342.4167271273061 354.44426009083423 -279.50005871512644 342.6473847635505C-216.58339030294678 330.8505094362668 -191.41672293807483 450.8955127667057 -128.50005452589517 451.367387779797C-65.58338611371545 451.8392627928884 -40.41671874884349 334.5311345383793 22.49994966333611 344.91238482638903C85.41661807551588 355.2936351143986 110.58328544038784 517.7130146204406 173.4999538525675 501.1973891622433C236.41662226474728 484.68176370404626 261.583289629619 279.793633019783 324.4999580417988 265.63738262704254C387.41662645397844 251.48113223430212 412.5832938188504 412.9567617141613 475.49996223103005 433.2473872770893C538.4166306432098 453.53801284001725 563.5832980080818 341.7980097399861 626.4999664202614 363.03238532909677C689.4166348324409 384.2667609182074 714.5833021973128 538.9473902095513 777.4999706094927 535.1723901048204C840.4166390216724 531.3973900000897 865.5833063865443 355.76551012748996 928.4999747987242 344.91238482638903C991.4166432109039 334.059259525288 1016.5833105757758 494.40238897372797 1079.4999789879553 483.0773886595356C1142.416647400135 471.75238834534326 1199.0416489710965 330.6617594310303 1230.4999831771866 290.5523833182657 " transform="rotate(66, 400, 400)"></path><path d="M-392.7500631661847 503.0836187177609C-362.72165324218986 470.20250985098653 -308.6705153789991 356.51494987874196 -248.61369553100937 345.2542961572439C-188.5568756830196 333.9936424357458 -164.53414774382372 448.5820547057102 -104.47732789583404 449.03248085457017C-44.42050804784435 449.4829070034301 -20.39778010864842 337.5069663968532 39.65903973934138 347.41634167177153C99.71585958733101 357.32571694668985 123.738587526527 512.3623973842753 183.79540737451669 496.597482174178C243.85222722250637 480.83256696408074 267.87495516170225 285.25753312910217 327.93177500969193 271.74474866330445C387.9885948576816 258.2319641975068 412.0113227968776 412.3677923373724 472.0681426448673 431.7361167383491C532.1249624928571 451.1044411393258 556.147690432053 344.443529089296 616.2045102800428 364.71270578799255C676.2613301280323 384.9818824866891 700.284058067228 532.6315740829718 760.340877915218 529.0281648920925C820.3976977632078 525.424755701213 844.4204257024035 357.77614309554974 904.4772455503935 347.41634167177153C964.5340653983833 337.0565402479933 988.5567933375792 490.1113456305951 1048.6136131855685 479.30111805795696C1108.670433033558 468.4908904853188 1162.7215708967487 333.81347197620187 1192.749980820744 295.52724932310844 " transform="rotate(63, 400, 400)"></path><path d="M-355.0000634280117 498.1748786023411C-326.40157778611183 466.85953682446075 -274.924303630692 358.58567018422787 -217.7273323468923 347.8612380685154C-160.53036106309253 337.13680595280294 -137.65157254957268 446.26862716229283 -80.45460126577296 446.69760444692133C-23.257629981973196 447.12658173154983 -0.37884146845328814 340.48282877290524 56.818129815346424 349.92032903473216C114.01510109914625 359.35782929655915 136.89388961266604 507.01181066568813 194.09086089646587 491.99760570369074C251.28783218026558 476.98340074169334 274.1666206937854 290.7214637559995 331.3635919775851 277.85214521714454C388.5605632613848 264.9828266782896 411.4393517749048 411.7788534781615 468.63632305870465 430.224876717187C525.8332943425042 448.67089995621245 548.7120828560243 347.0890789561841 605.9090541398239 366.3930567644665C663.1060254236236 385.6970345727489 685.9848139371434 526.3157884739705 743.1817852209433 522.8839701969425C800.378756504743 519.4521519199145 823.2575450182628 359.78680658118765 880.4545163020628 349.92032903473216C937.6514875858627 340.05385148827673 960.5302760993823 485.8203328050403 1017.727247383182 475.5248779739564C1074.9242186669817 465.2294231428724 1126.4014928224015 336.96521503895156 1154.9999784643012 300.5021458455292 " transform="rotate(60, 400, 400)"></path><path d="M-317.2500636898386 493.26612322813224C-290.08150233003374 463.5165485391459 -241.17809188238493 360.65637523092465 -186.8409691627752 350.46816472099783C-132.50384644316546 340.279954211071 -110.76899735532157 443.9551843600864 -56.431874635711836 444.36271278048343C-2.0947519161020978 444.77024120088055 19.640097171741843 343.45867589016814 73.97721989135158 352.4243011389038C128.31434261096138 361.3899263876394 150.04919169880532 501.66120868831194 204.38631441841505 487.3977139744144C258.7234371380248 473.13421926051683 280.4582862258686 296.18537912410767 334.79540894547836 283.9595265121955C389.1325316650881 271.7336739002833 410.86738075293204 411.1898993601617 465.2045034725418 428.7136214372358C519.5416261921515 446.23734351431006 541.2764752799955 349.7346135642831 595.6135979996052 368.0733924821514C649.9507207192148 386.4121714000197 671.6855698070588 519.9999876061802 726.0226925266686 516.7397602430036C780.3598152462782 513.479532879827 802.0946643341222 361.7974548080365 856.431787053732 352.4243011389038C910.7689097733419 343.0511474697711 932.5037588611858 481.52930472069653 986.8408815807954 471.74862263116677C1041.178004300405 461.96794054163706 1090.0814147480537 340.1169428429122 1117.2499761078586 305.477027109161 " transform="rotate(57, 400, 400)"></path><path d="M-279.50006395166554 488.3573983715015C-253.76142687395568 460.1735907714092 -207.4318801340779 362.72711079519956 -155.95460597865815 353.0751218910584C-104.47733182323839 343.42313298691715 -83.88642216107053 441.6417720754581 -32.40914800565076 442.0278516316237C19.068126149769057 442.41393118778944 39.659035811936974 346.4345535250092 91.13630996735668 354.92830376065353C142.61358412277644 363.42205399629773 163.20449378494442 496.3106372285139 214.68176794036413 482.79785276271616C266.159042095784 469.28506829691855 286.74995175795175 301.64932500979404 338.2272259133715 290.0669383248246C389.7045000687913 278.48455163985517 410.29540973095925 410.60097575974 461.772683886379 427.2023966748628C513.2499580417988 443.8038175899857 533.8408677039668 352.38017868996025 585.3181418593864 369.75375871741437C636.7954160148062 387.12733874486855 657.3863256769739 513.6842172559681 708.8635998323939 510.59558080664283C760.3408739878137 507.5069443573177 780.9317836499815 363.8081335524634 832.4090578054013 354.92830376065353C883.886331960821 346.0484739688436 904.4772416229891 477.23830715393086 955.9545157784087 467.9723978059553C1007.4317899338284 458.70648845797973 1053.7613366737062 343.26870116445093 1079.499973751416 310.4519388903708 " transform="rotate(54, 400, 400)"></path><path d="M-241.75006421349252 483.4486735148708C-217.44135141787763 456.83063300367246 -173.68566838577084 364.79784635947453 -125.06824279454105 355.68207906111894C-76.45081720331132 346.56631176276335 -57.003846966819395 439.3283597908297 -8.386421375589634 439.692990482764C40.231004215640155 440.0576211746982 59.677974452132105 349.4104311598503 108.29540004336184 357.4323063824032C156.91282563459163 365.45418160495615 176.35979587108363 490.9600657687158 224.9772214623133 478.197991551018C273.5946470535431 465.43591733332016 293.041617290035 307.1132708954804 341.6590428812648 296.1743501374537C390.27646847249446 285.235429379427 409.72343870898646 410.0120521593182 458.34086430021625 425.69117191248984C506.95828989144604 441.3702916656614 526.4052601279379 355.0257438156373 575.0226857191677 371.4341249526774C623.6401113103974 387.84250608971746 643.0870815468892 507.36844690575583 691.7045071381191 504.45140137028204C740.3219327293491 501.53435583480825 759.7689029658409 365.81881229689037 808.3863285570708 357.4323063824032C857.0037541483005 349.0458004679161 876.4507243847925 472.94730958716514 925.0681499760221 464.19617298074377C973.6855755672518 455.4450363743224 1017.4412585993587 346.4204594859897 1041.7499713949735 315.42685067158067 " transform="rotate(51, 400, 400)"></path><path d="M-204.00006447531948 478.53992577005647C-181.1212759617996 453.4876523477522 -139.93945663746376 366.86855903556585 -94.181879610424 358.28901334299593C-48.42430258338422 349.70946765042595 -30.121271772568292 437.01492461801786 15.636305254471495 437.35810644572064C61.39388228151131 437.7012882734235 79.69691309232724 352.3862859065078 125.454490119367 359.9362861159693C171.21206714640675 367.4862863254309 189.5150979572228 485.6094714207341 235.2726749842625 473.5981074511362C281.0302520113023 461.58674348153824 299.33328282211824 312.57719389298313 345.09085984915794 302.2817390618992C390.84843687619775 291.9862842308153 409.1514676870137 409.42310567071286 454.9090447140535 424.1799242619332C500.6666217410932 438.93674285315353 518.9696525519091 357.67128605313087 564.727229578949 373.1144682997568C610.4848066059888 388.5576505463827 628.7878374168046 501.05265366736 674.5454144438444 498.30719904573766C720.3029914708843 495.56174442411526 738.6060222817001 367.8294681531337 784.36359930874 359.9362861159693C830.1211763357799 352.04310407880496 848.4242071465958 468.6562891322159 894.1817841736356 460.41992526734873C939.9393612006752 452.1835614024816 981.1211805250109 349.57219491934484 1003.9999690385309 320.40173956460694 " transform="rotate(48, 400, 400)"></path><path d="M-166.25006473714643 473.6311742105449C-144.80120050572154 450.1446678771346 -106.19324488915669 368.93926789695996 -63.295516426306904 360.8959438101756C-20.39778796345712 352.8526197233913 -3.238696578317189 434.70148563050867 39.659031884532624 435.02321859398006C82.55676034738235 435.34495155745145 99.71585173252237 355.36213683846796 142.61358019537215 362.4402620348382C185.51130865822194 369.5183872312084 202.67040004336195 480.2588732580552 245.56812850621174 468.99821953655714C288.4658569690614 457.73756581505904 305.62494835420136 318.04111307578864 348.5226768170512 308.38912417164744C391.42040527990093 298.73713526750623 408.5794966650409 408.83415536741023 451.4772251278906 422.6686727966793C494.3749535907406 436.5031902259484 511.53404497588053 360.31682447592715 554.4317734387301 374.79480783213893C597.3295019015799 389.27279118835077 614.4885932867198 494.736856614267 657.3863217495697 492.162992906496C700.2840502124195 489.589129198725 717.4431415975596 369.8401201946798 760.3408700604094 362.4402620348382C803.2385985232593 355.0404038749966 820.3976899083991 464.36526486256935 863.2954183712488 456.64367373925637C906.1931468340983 448.9220826159434 944.8011024506632 352.72392653800273 966.2499666820884 325.37662464293595 " transform="rotate(45, 400, 400)"></path><path d="M-128.50005736957885 468.72241502163877C-108.48111742024895 446.8016757771225 -72.44702551145511 371.0099691289595 -32.4091456127953 363.5028666479608C7.62873428586451 355.99576416696203 23.643886245328417 432.38803901360495 63.68176614398823 432.68832311284496C103.71964604264804 432.9886072120849 119.73479800211203 358.33798014103365 159.77267790077184 364.9442303243125C199.8105577994316 371.5504805075914 215.82570975889558 474.9082674659817 255.8635896575554 464.3983239925835C295.9014695562152 453.8883805191853 311.9166215156791 323.5050246291996 351.9545014143389 314.49650165200114C391.99238131299876 305.4879786748027 408.00753327246264 408.2451974347131 448.0454131711225 421.1574137020309C488.08329306978226 434.0696299693487 504.09844502924625 362.9623552693289 544.136324927906 376.47513973512656C584.1742048265658 389.9879242009242 600.1893567860297 488.4210519317794 640.2272366846895 486.0187791378598C680.2651165833494 483.6165063439402 696.2802685428134 371.8507646068313 736.3181484414732 364.9442303243125C776.356028340133 358.0376960417937 792.3711802995971 460.07423296352823 832.4090601982566 452.8674145817695C872.4469400969165 445.6605962000107 908.4810320057102 355.8756505272661 928.4999719550401 330.35150209187043 " transform="rotate(42, 400, 400)"></path><path d="M-90.75002711382768 463.81369016500804C-72.16101144659278 443.4587180093858 -38.70078324556991 373.08070469323445 -1.5227519111001016 366.1098238180213C35.655279423369734 359.1389429428082 50.526491957157674 430.0746267289767 87.70452329162748 430.3534619639852C124.88255462609732 430.63229719899374 139.75376715988523 361.31385777587474 176.93179849435506 367.44823294606226C214.1098298288249 373.5826081162498 228.98104236261287 469.5576960061836 266.1590736970827 459.7984627808853C303.3371050315525 450.039229555587 318.2083175653404 328.968970514886 355.3863488998102 320.6039134646303C392.56438023427995 312.23885641437454 407.4355927680681 407.65627383429137 444.61362410253787 419.64618893965786C481.79165543700765 431.6361040450244 496.66286797079556 365.607920395006 533.8408993052655 378.1555059703895C571.0189306397351 390.70309154577313 585.890143173523 482.10528158156717 623.0681745079929 479.874599701499C660.2462058424629 477.6439178214308 675.1174183762508 373.8614433512583 712.2954497107206 367.44823294606226C749.4734810451906 361.0350225408662 764.3446935789784 455.78323539676256 801.5227249134482 449.091189756558C838.7007562479179 442.3991441163534 872.1609844489408 359.02740884880484 890.7500001161757 335.3264138730803 " transform="rotate(39, 400, 400)"></path><path d="M-52.99999685807653 458.90493860549645C-35.84090547293661 440.11573353876827 -4.954540979684737 375.1514135546285 29.363641790595096 368.71675428520103C63.68182456087493 362.28209501577356 77.40909766898687 427.7611877414675 111.7272804392667 428.01857411224455C146.04546320954654 428.27596048302166 159.77273631765848 364.28970870783496 194.09091908793835 369.9522088649311C228.4091018582182 375.6147090220273 242.13637496633015 464.2070978435047 276.45455773660996 455.1985748663062C310.7727405068898 446.1900518891078 324.5000136150017 334.43288969769145 358.81819638528157 326.71129857437853C393.1363791555614 318.98970745106556 406.86365226367343 407.06732353098874 441.1818350339531 418.134937474404C475.50001780423304 429.2025514178193 489.227290912345 368.25345881780225 523.5454736826249 379.8358455027717C557.8636564529046 391.4182321877411 571.5909295610165 475.7894845284742 605.9091123312963 473.7303935622573C640.2272951015763 471.6713025960405 653.9545682096882 375.8720953928044 688.2727509799681 369.9522088649311C722.5909337502479 364.03232233705785 736.3182068583599 451.492211127116 770.6363896286397 445.3149382284656C804.9545723989194 439.13766532981526 835.8409368921713 362.17914046746273 853.0000282773112 340.3012989514093 " transform="rotate(36, 400, 400)"></path><path d="M-15.249997119903483 453.99618704598487C0.4791699831414462 436.7727490681507 28.791670768622325 377.22212241602256 60.25000497471217 371.3236847523807C91.708339180802 365.4252470887389 104.29167286323798 425.4477487539583 135.7500070693278 425.683686260504C167.20834127541767 425.91962376704964 179.79167495785362 367.26555963979513 211.25000916394345 372.4561847838C242.70834337003333 377.6468099278048 255.2916770524693 458.8564996808258 286.75001125855914 450.59868695172713C318.208345464649 442.3408742226286 330.7916791470849 339.89680888049696 362.2500133531748 332.81868368412677C393.7083475592646 325.7405584877565 406.2916812417006 406.4783732276861 437.7500154477905 416.6236860091501C469.2083496538803 426.7689987906141 481.7916833363163 370.89899724059853 513.2500175424061 381.51618503515385C544.7083517484958 392.1333728297092 557.2916854309318 469.4736874753811 588.7500196370218 467.58618742301564C620.2083538431116 465.6986873706503 632.7916875255476 377.88274743435045 664.2500217316375 372.4561847838C695.7083559377273 367.02962213324946 708.2916896201633 447.20118685746945 739.750023826253 441.53868670037326C771.2083580323429 435.8761865432771 799.5208588178236 365.3308720861206 815.2500259208687 345.2761840297383 " transform="rotate(33, 400, 400)"></path><path d="M22.500002618269562 449.0874469305651C36.79924543921949 433.4297760416249 62.537882516929386 379.29284272150846 91.13636815882924 373.9306266636522C119.73485380072913 368.568410605796 131.17424805748905 423.134321210541 159.7727336993889 423.3488098528552C188.3712193412888 423.5632984951694 199.81061359804875 370.24142201584715 228.4090992399486 374.9601721467606C257.0075848818485 379.6789222776741 268.4469791386084 453.5059129622386 297.0454647805083 445.9988104812399C325.6439504224082 438.4917080002412 337.0833446791681 345.36073950739427 365.68183032106793 338.9260802379668C394.2803159629678 332.49142096853933 405.7197102197278 405.8894343684753 434.3181958616277 415.11244598798805C462.9166815035275 424.33545760750076 474.35607576028747 373.54454710748655 502.9545614021873 383.19653601162776C531.5530470440872 392.84852491576896 542.9924413008471 463.1579018663798 571.590926942747 461.4419927278658C600.1894125846469 459.7260835893518 611.6288068414068 379.89341091998836 640.2272924833068 374.9601721467606C668.8257781252067 370.02693337353287 680.2651723819665 442.9101740319147 708.8636580238664 437.7624466163727C737.4621436657662 432.61471920083073 763.2007807434761 368.4826151488703 777.500023564426 350.2510805521591 " transform="rotate(30, 400, 400)"></path><path d="M60.25000235644261 444.1786915563562C73.11932089529755 430.08678775631006 96.28409426523645 381.36354776820525 122.02273134294632 376.5375533161347C147.7613684206562 371.71155886406405 158.05682325174013 420.8208784083345 183.79546032945 421.0139181864173C209.53409740715992 421.2069579645002 219.82955223824388 373.2172691331101 245.56818931595373 377.46414425093224C271.30682639366364 381.71101936875436 281.60228122474757 448.1553109848624 307.34091830245745 441.39891875196355C333.0795553801674 434.64252651906475 343.37501021125126 350.82465487550246 369.11364728896115 345.03346153301777C394.85228436667103 339.242268190533 405.147739197755 405.30048025047546 430.8863762754649 413.6011907080369C456.6250133531748 421.90190116559836 466.92046818425877 376.19008171558556 492.6591052619686 384.87687172931265C518.3977423396784 393.56366174303975 528.6931971707623 456.8421009985895 554.4318342484723 455.2977827739269C580.1704713261822 453.7534645492643 590.4659261572662 381.9040591468372 616.204563234976 377.46414425093224C641.9432003126859 373.0242293550273 652.23865514377 438.6191459475709 677.9772922214797 433.98619127358313C703.7159292991896 429.35323659959533 726.8807026691285 371.63434295283093 739.7500212079834 355.22596181579087 " transform="rotate(27, 400, 400)"></path><path d="M98.00000209461565 439.2699666997255C109.43939635137559 426.74382998857334 130.0303060135435 383.4342833324802 152.9090945270634 379.1445104861952C175.78788304058327 374.85473763991024 184.93939844599123 418.5074661237062 207.81818695951114 418.6790570375576C230.69697547303105 418.850647951409 239.848490878439 376.19314676795113 262.72727939195886 379.9681468726819C285.60606790547877 383.7431469774127 294.7575833108868 442.8047395250643 317.63637182440664 436.7990575402654C340.51516033792655 430.79337555546635 349.6666757433345 356.28860076118883 372.54546425685436 351.14087334564687C395.42425277037427 345.9931459301049 404.57576817578223 404.7115566500537 427.45455668930214 412.0899659456639C450.333345202822 419.46837524127403 459.48486060822995 378.8356468412627 482.3636491217499 386.5572379645757C505.24243763526977 394.27882908788865 514.3939530406776 450.52633064837727 537.2727415541976 449.1536033375661C560.1515300677175 447.78087602675487 569.3030454731254 383.9147378912641 592.1818339866454 379.9681468726819C615.0606225001653 376.02155585409974 624.2121379055733 434.3281483808052 647.0909264190932 430.20996644837163C669.969714932613 426.09178451593806 690.5606245947808 374.7861012743697 702.0000188515409 360.20087359700074 " transform="rotate(24, 400, 400)"></path><path d="M135.7500018327887 434.36121132551665C145.75947180745365 423.4008417032585 163.77651776185058 385.504988379177 183.79545771118046 381.75143713867766C203.8143976605104 377.9978858981783 211.82197364024233 416.19402332149974 231.84091358957224 416.34416537111974C251.85985353890214 416.4943074207397 259.86742951863414 379.1689938852141 279.8863694679641 382.47211897685355C299.9053094172939 385.77524406849295 307.9128853970259 437.4541375476881 327.9318253463558 432.19916581098903C347.95076529568576 426.94419407428995 355.95834127541764 361.7525161292971 375.97728122474757 357.24825464069784C395.9962211740775 352.7439931520986 404.00379715380944 404.1226025320538 424.0227371031394 410.5787106657127C444.04167705246925 417.03481879937164 452.04925303220125 381.4811814493617 472.0681929815311 388.2375736822605C492.087132930861 394.9939659151594 500.094708910593 444.21052978058697 520.1136488599229 443.0093933836272C540.1325888092529 441.8082569866674 548.1401647889847 385.92538611811295 568.1591047383147 382.47211897685355C588.1780446876446 379.0188518355941 596.1856206673767 430.03712029646135 616.2045606167064 426.433711105582C636.2235005660364 422.8303019147026 654.2405465204332 377.9378290783303 664.2500164950982 365.1757548606325 " transform="rotate(21, 400, 400)"></path><path d="M173.49998631217267 429.4524750247941C182.07953200474265 420.05787249143003 197.52271425136857 387.5757124993602 214.6818056365085 384.3583828646464C231.8408970216484 381.1410532299327 238.70453357570437 413.8805995927796 255.86362496084428 414.0092927781682C273.02271634598424 414.13798596355673 279.88635290004015 382.1448600759634 297.0454442851801 384.97611015451145C314.20453567032007 387.8073602330595 321.068172224376 432.10355464379825 338.22726360951594 427.599293155199C355.38635499465585 423.09503166659977 362.2499915487118 367.21645057089165 379.4090829338517 363.35565500923514C396.5681743189916 359.4948594475787 403.43181087304765 403.53366748754024 420.5909022581875 409.0674744592479C437.74999364332746 414.6012814309555 444.61363019738343 384.12673513094705 461.7727215825234 389.91792847343174C478.93181296766323 395.7091218159165 485.7954495217192 437.894747986283 502.9545409068591 436.86520250317454C520.113632291999 435.83565702006615 526.977268846055 387.93605341844807 544.136360231195 384.97611015451145C561.295451616335 382.0161668905748 568.1590881703909 425.7461112856039 585.3181795555308 422.6574748362787C602.4772709406707 419.56883838695353 617.9204531872965 381.08957595577726 626.4999988798666 370.15065519775055 " transform="rotate(18, 400, 400)"></path><path d="M211.24998605034574 424.5437196505853C218.39960746082068 416.7148842061152 231.26892599967562 389.64641754605697 245.56816882062554 386.96530951712884C259.8674116415755 384.2842014882007 265.5871087699555 411.5671567905732 279.8863515909054 411.67440111173033C294.18559441185533 411.78164543288744 299.90529154023534 385.1207071932263 314.2045343611852 387.48008225868307C328.5037771821352 389.8394573241398 334.22347431051514 426.75295266642206 348.52271713146513 422.99940142592266C362.821959952415 419.2458501854233 368.54165708079495 372.68036593899984 382.84089990174493 369.4630363042861C397.1401427226948 366.24570666957237 402.85983985107487 402.9447133695404 417.1590826720248 407.55621917929676C431.4583254929747 412.1677249890531 437.17802262135467 386.772269739046 451.4772654423046 391.59826419111664C465.7765082632545 396.4242586431872 471.4962053916345 431.57894711849264 485.79544821258446 430.72099254923563C500.0946910335344 429.8630379799786 505.81438816191434 389.9467016452969 520.1136309828644 387.48008225868307C534.4128738038144 385.01346287206917 540.1325709321942 421.4550832012601 554.4318137531441 418.8812194934891C568.731056574094 416.30735578571813 581.600375112949 384.2413037597379 588.749996523424 375.1255364613823 " transform="rotate(15, 400, 400)"></path><path d="M248.99998578851876 419.6349814425141C254.71968291689873 413.37191308693804 265.0151377479827 391.71713975889145 276.45453200474265 389.572253335749C287.89392626150254 387.4273669126065 292.4696839642065 409.25373115450446 303.90907822096653 409.3395266114302C315.34847247772643 409.42532206835585 319.9242301804304 388.09657147662693 331.36362443719037 389.98407152899233C342.8030186939503 391.8715715813577 347.3787763966543 421.4023678551835 358.81817065341426 418.39952686278406C370.2575649101742 415.39668587038454 374.8333226128782 378.1442984732458 386.2727168696381 375.57043476547483C397.7121111263981 372.9965710577038 402.2878688291021 402.3557764176782 413.727263085862 406.0449810654833C425.16665734262193 409.7341857132884 429.7424150453259 389.4178215132827 441.18180930208587 393.2786170749392C452.6212035588458 397.1394126365957 457.19696126154975 425.26316341684003 468.63635551830976 424.5767997614344C480.0757497750697 423.8904361060288 484.65150747777363 391.95736703828345 496.09090173453365 389.98407152899233C507.5302959912936 388.0107760197012 512.1060536939976 417.164072283054 523.5454479507575 415.10498131683715C534.9848422075174 413.04589035062037 545.2802970386014 387.3930487298362 550.9999941669814 380.10043489115174 " transform="rotate(12, 400, 400)"></path><path d="M286.7500007854809 414.72623751239706C291.03977363176585 410.028936245715 298.76136475507883 393.7878562496801 307.34091044764875 392.1791914323232C315.92045614021873 390.57052661496635 319.3522744172467 406.9402997963898 327.93182010981667 407.0046463890841C336.51136580238665 407.06899298177836 339.9431840794146 391.0724300379817 348.5227297719846 392.4880550772557C357.10227546455457 393.90368011652976 360.5340937415825 416.0517773218991 369.1136394341525 413.7996465775995C377.6931851267225 411.5475158332999 381.12500340375044 383.6082252854458 389.7045490963204 381.6778275046176C398.28409478889034 379.7474297237893 401.71591306591836 401.7668337437701 410.2954587584883 404.53373722962397C418.87500445105826 407.30064071547775 422.3068227280862 392.0633675654735 430.88636842065625 394.9589642367159C439.4659141132262 397.8545609079582 442.89773239025413 418.94737399314147 451.4772780828241 418.4326012515873C460.05682377539404 417.9178285100331 463.48864205242205 393.96802670922403 472.06818774499203 392.4880550772557C480.647733437562 391.0080834452874 484.07955171458997 412.87305564280194 492.65909740715995 411.3287374181394C501.23864309972987 409.78441919347677 508.9602342230428 390.54478797788863 513.2500070693278 385.0753275988753 " transform="rotate(9, 400, 400)"></path><path d="M324.5000005236539 409.81748976758274C327.3598490878439 406.68595558979473 332.50757650338585 395.8585689257714 338.22727363176585 394.7861257142002C343.9469707601458 393.7136825026289 346.2348496114978 404.6268646235779 351.9545467398778 404.6697623520408C357.67424386825775 404.7126600805036 359.96212271960974 394.0482847846392 365.6818198479897 394.99203481082185C371.4015169763697 395.9357848370046 373.6893958277217 410.70118297391747 379.40909295610163 409.1997624777177C385.12879008448164 407.69834198151796 387.4166689358336 389.07214828294855 393.1363660642136 387.7852164290631C398.8560631925936 386.4982845751776 401.1439420439456 401.1778872551648 406.8636391723255 403.0224895790673C412.58333630070547 404.8670919029699 414.8712151520575 394.708909802967 420.59091228043746 396.6393075837953C426.3106094088174 398.56970536462353 428.5984882601694 412.6315807547457 434.3181853885494 412.28839892704286C440.03788251692936 411.9452170993401 442.32576136828135 395.9786825654674 448.04545849666135 394.99203481082185C453.7651556250413 394.0053870561763 456.05303447639335 408.5820351878527 461.7727316047733 407.5524897047443C467.49242873315325 406.5229442216359 472.6401561486952 393.6965234112438 475.50000471288524 390.05021649190155 " transform="rotate(6, 400, 400)"></path><path d="M362.24999644712966 404.90874393011705C363.6799207292247 403.34297684122305 366.25378443699566 397.9292835092114 369.1136330011857 397.39306190342575C371.97348156537566 396.85684029764013 373.11742099105163 402.31343135811466 375.9772695552416 402.33488022234604C378.8371181194316 402.3563290865775 379.9810575451076 397.02414143864524 382.8409061092976 397.49601645173664C385.7007546734876 397.96789146482797 386.8446940991636 405.3505905332844 389.70454266335355 404.59988028518455C392.5643912275435 403.84917003708466 393.70833065321955 394.53607318779996 396.5681792174095 393.89260726085723C399.42802778159955 393.2491413339145 400.5719672072755 400.5889426739081 403.4318157714655 401.5112438358594C406.29166433565547 402.4335449978106 407.4356037613315 397.3544539478092 410.29545232552147 398.3196528382233C413.15530088971144 399.2848517286375 414.29924031538746 406.3157894236985 417.15908887957744 406.1441985098471C420.0189374437674 405.9726075959957 421.1628768694434 397.98934032905936 424.0227254336334 397.49601645173664C426.8825739978234 397.00269257441386 428.0265134234994 404.291016640252 430.8863619876894 403.7762438986978C433.74621055187936 403.2614711571436 436.32007425965037 396.8482607519476 437.74999854174536 395.02510729227646 " transform="rotate(3, 400, 400)"></path></g></svg>